<?xml version="1.0" encoding="UTF-8"?>
<svg width="20px" height="20px" viewBox="0 0 20 20" version="1.1" xmlns="http://www.w3.org/2000/svg" xmlns:xlink="http://www.w3.org/1999/xlink">
    <!-- Generator: Sketch 49.3 (51167) - http://www.bohemiancoding.com/sketch -->
    <title>Hijab</title>
    <desc>Created with Sketch.</desc>
    <defs></defs>
    <g id="Blog-Page" stroke="none" stroke-width="1" fill="none" fill-rule="evenodd">
        <g id="Profile-page-Copy-2" transform="translate(-447.000000, -1119.000000)" fill="#BAB6BD" fill-rule="nonzero">
            <g id="Hijab" transform="translate(447.000000, 1119.000000)">
                <path d="M18,15.4 C17.7,15.2 17.4,14.9 17.1,14.6 C16.2,13.8 15.6,12.9 15.4,11.7 C15.3,11 15.2,10.4 15.2,9.7 C15.1,8.1 15.1,6.4 15,4.8 C14.9,3.4 14.4,2.1 13.3,1.2 C12.4,0.4 11.3,0.1 10.2,-1.77635684e-15 C9.2,-1.77635684e-15 8.2,0.1 7.3,0.6 C5.6,1.6 4.8,3.2 4.7,5.2 C4.6,7.2 4.6,9.2 4.5,11.2 C4.5,12.5 4,13.7 3,14.5 C2.7,14.8 2.4,15 2.1,15.3 C1.8,15.6 1.4,15.9 1.2,16.3 C0.5,17.5 0.7,18.7 0.9,19.9 C7,19.9 13.1,19.9 19.3,19.9 C19.3,19.2 19.4,18.6 19.4,18 C19.3,17 19,16.1 18,15.4 Z M13.4,6.8 C13.4,8.7 11.9,10.2 10,10.2 C8.1,10.2 6.6,8.7 6.6,6.8 L6.6,5.9 L13.4,5.9 L13.4,6.8 Z" id="Shape"></path>
            </g>
        </g>
    </g>
</svg>