<?xml version="1.0" encoding="UTF-8"?>
<svg width="20px" height="20px" viewBox="0 0 20 20" version="1.1" xmlns="http://www.w3.org/2000/svg" xmlns:xlink="http://www.w3.org/1999/xlink">
    <!-- Generator: Sketch 49.3 (51167) - http://www.bohemiancoding.com/sketch -->
    <title>plugin</title>
    <desc>Created with Sketch.</desc>
    <defs></defs>
    <g id="Blog-Page" stroke="none" stroke-width="1" fill="none" fill-rule="evenodd">
        <g id="Profile-page" transform="translate(-450.000000, -876.000000)" fill="#BAB6BD" fill-rule="nonzero">
            <g id="plugin" transform="translate(450.000000, 876.000000)">
                <path d="M20,14 L20,18 C20,19.1045695 19.1045695,20 18,20 L14,20 L14,18 C14,16.8954305 13.1045695,16 12,16 C10.8954305,16 10,16.8954305 10,18 L10,20 L6,20 C4.8954305,20 4,19.1045695 4,18 L4,14 L2,14 C0.8954305,14 1.3527075e-16,13.1045695 0,12 C-1.3527075e-16,10.8954305 0.8954305,10 2,10 L4,10 L4,6 C4,4.9 4.9,4 6,4 L10,4 L10,2 C10,0.8954305 10.8954305,2.02906125e-16 12,0 C13.1045695,6.76353751e-17 14,0.8954305 14,2 L14,4 L18,4 C19.1045695,4 20,4.8954305 20,6 L20,10 L18,10 C16.8954305,10 16,10.8954305 16,12 C16,13.1045695 16.8954305,14 18,14 L20,14 Z" id="Shape"></path>
            </g>
        </g>
    </g>
</svg>