<?xml version="1.0" encoding="UTF-8"?>
<svg width="20px" height="16px" viewBox="0 0 20 16" version="1.1" xmlns="http://www.w3.org/2000/svg" xmlns:xlink="http://www.w3.org/1999/xlink">
    <!-- Generator: Sketch 49.3 (51167) - http://www.bohemiancoding.com/sketch -->
    <title>Shape</title>
    <desc>Created with Sketch.</desc>
    <defs></defs>
    <g id="Blog-Page" stroke="none" stroke-width="1" fill="none" fill-rule="evenodd">
        <g id="Profile-page-Copy-2" transform="translate(-793.000000, -1118.000000)" fill="#BAB6BD" fill-rule="nonzero">
            <path d="M802.774381,1127.50408 L808.112094,1131.41363 C808.551906,1131.74359 809.351563,1132.00356 809.901328,1132.00356 L813,1132.00356 L799.895615,1122.38468 C800.324,1120.74475 799.515942,1119.03347 797.977613,1118.3228 C796.439284,1117.61213 794.612954,1118.10638 793.642651,1119.49595 C792.672347,1120.88552 792.837032,1122.77091 794.033545,1123.9711 C795.230058,1125.17129 797.114403,1125.34122 798.50621,1124.37445 L800.735255,1126.00426 L798.50621,1127.63407 C797.118058,1126.66105 795.232286,1126.82343 794.030791,1128.01944 C792.829296,1129.21545 792.657753,1131.101 793.623675,1132.49432 C794.589598,1133.88764 796.415086,1134.38788 797.956026,1133.68151 C799.496966,1132.97514 800.310023,1131.26539 799.885619,1129.62383 L802.784377,1127.50408 L802.774381,1127.50408 Z M796.507067,1123.00461 C795.971398,1123.00461 795.47642,1122.71874 795.208585,1122.25469 C794.940751,1121.79065 794.940751,1121.21892 795.208585,1120.75487 C795.47642,1120.29082 795.971398,1120.00496 796.507067,1120.00496 C797.335139,1120.00496 798.006424,1120.67645 798.006424,1121.50478 C798.006424,1122.33311 797.335139,1123.00461 796.507067,1123.00461 Z M796.507067,1132.00356 C795.678995,1132.00356 795.007709,1131.33206 795.007709,1130.50373 C795.007709,1129.6754 795.678995,1129.00391 796.507067,1129.00391 C797.335139,1129.00391 798.006424,1129.6754 798.006424,1130.50373 C798.006424,1131.33206 797.335139,1132.00356 796.507067,1132.00356 Z M808.102099,1120.59489 C808.636912,1120.23795 809.259056,1120.03396 809.901328,1120.00496 L813,1120.00496 L805.503212,1125.50432 L803.45409,1124.00449 L808.102099,1120.59489 Z" id="Shape"></path>
        </g>
    </g>
</svg>