<?xml version="1.0" encoding="UTF-8"?>
<svg width="16px" height="20px" viewBox="0 0 16 20" version="1.1" xmlns="http://www.w3.org/2000/svg" xmlns:xlink="http://www.w3.org/1999/xlink">
    <!-- Generator: Sketch 49.3 (51167) - http://www.bohemiancoding.com/sketch -->
    <title>Marital</title>
    <desc>Created with Sketch.</desc>
    <defs></defs>
    <g id="Blog-Page" stroke="none" stroke-width="1" fill="none" fill-rule="evenodd">
        <g id="Profile-page" transform="translate(-454.000000, -791.000000)" fill="#BAB6BD" fill-rule="nonzero">
            <g id="Marital" transform="translate(454.000000, 791.000000)">
                <g id="Layer_2_1_" transform="translate(0.000000, 4.000000)">
                    <g id="Layer_1-2">
                        <path d="M8,3.2 C10.8,3.2 13.1,5.5 13.1,8.3 C13.1,11.1 10.8,13.4 8,13.4 C5.2,13.4 2.9,11.1 2.9,8.3 C2.9,5.5 5.2,3.2 8,3.2 Z M8,0.7 C3.8,0.7 0.3,4.1 0.3,8.4 C0.3,12.7 3.8,16 8,16 C12.2,16 15.7,12.6 15.7,8.3 C15.7,4 12.2,0.7 8,0.7 Z" id="Shape"></path>
                    </g>
                </g>
                <polygon id="Shape" points="10.1 0 5.9 0 4.8 1 7 4.2 9 4.2 11.2 1"></polygon>
            </g>
        </g>
    </g>
</svg>