<?xml version="1.0" encoding="UTF-8"?>
<svg width="20px" height="20px" viewBox="0 0 20 20" version="1.1" xmlns="http://www.w3.org/2000/svg" xmlns:xlink="http://www.w3.org/1999/xlink">
    <!-- Generator: Sketch 49.3 (51167) - http://www.bohemiancoding.com/sketch -->
    <title>Prayer</title>
    <desc>Created with Sketch.</desc>
    <defs></defs>
    <g id="Blog-Page" stroke="none" stroke-width="1" fill="none" fill-rule="evenodd">
        <g id="Profile-page" transform="translate(-792.000000, -1040.000000)" fill="#BAB6BD" fill-rule="nonzero">
            <g id="Prayer" transform="translate(792.000000, 1040.000000)">
                <path d="M8.4,4.3 C8.6,4.5 8.7,4.6 8.9,4.8 C9.4,5.5 9.4,6.4 8.8,7 C8,7.9 7.2,8.7 6.3,9.6 C6.3,9.6 6.3,9.6 6.3,9.6 C6.2,9.7 6.2,9.9 6.3,10 C6.4,10.1 6.6,10.1 6.7,10 C7.4,9.3 8.1,8.6 8.8,7.9 C10.5,6.1 12.3,4.3 14,2.6 C14.3,2.3 14.8,2.2 15.2,2.3 C15.6,2.5 15.9,2.9 15.9,3.3 C15.9,3.6 15.8,3.8 15.6,4.1 C14.7,5.1 13.7,6 12.8,7 C12,7.8 11.2,8.7 10.4,9.5 C10.4,9.5 10.3,9.6 10.3,9.7 C10.3,9.8 10.3,9.9 10.4,10 C10.5,10.1 10.6,10 10.7,10 C11,9.7 11.2,9.5 11.5,9.2 C13.3,7.4 15,5.6 16.8,3.8 C17.1,3.5 17.5,3.3 17.9,3.5 C18.7,3.7 19,4.7 18.4,5.3 C17.9,5.8 17.4,6.3 16.9,6.8 C15.4,8.4 13.9,9.9 12.3,11.5 C12.3,11.5 12.2,11.6 12.2,11.6 C12.1,11.7 12.1,11.8 12.2,11.9 C12.3,12 12.4,12 12.5,11.9 C12.6,11.9 12.6,11.8 12.7,11.7 C14.4,9.9 16.1,8.2 17.8,6.4 C18.2,6 18.8,5.9 19.3,6.2 C19.8,6.6 19.9,7.4 19.4,7.8 C19.1,8.1 18.8,8.4 18.5,8.8 C17.1,10.3 15.6,11.7 14.2,13.2 C14.2,13.2 14.2,13.2 14.2,13.2 C14.1,13.3 14.1,13.5 14.2,13.6 C14.3,13.7 14.5,13.7 14.6,13.6 C15.3,12.9 16,12.1 16.7,11.4 C17,11.1 17.3,10.7 17.7,10.4 C18,10.1 18.4,10 18.8,10.1 C19.2,10.2 19.5,10.5 19.6,10.9 C19.7,11.3 19.6,11.6 19.3,11.9 C18.5,12.7 17.7,13.6 16.9,14.4 C15.7,15.6 14.6,16.8 13.4,18 C12,19.4 10.2,20.1 8.2,20 C5.4,19.8 3.1,17.8 2.4,15.1 C1.9,12.8 2.4,10.8 4,9.1 C5.2,7.5 6.6,6.2 8,4.8 C8.1,4.6 8.3,4.5 8.4,4.3 Z" id="Shape"></path>
                <path d="M1.6,15.3 C1.6,15.2 1.5,15.2 1.5,15.1 C-0.3,12.6 -5.55111512e-17,9.1 2.1,6.9 C3.6,5.4 5.1,3.9 6.5,2.3 C6.5,2.3 6.5,2.3 6.6,2.2 C6.9,2.5 7.1,2.7 7.3,3 C7.5,3.4 7.6,3.8 7.5,4.2 C7.5,4.3 7.4,4.4 7.4,4.4 C6.1,5.7 4.8,7 3.5,8.4 C2.4,9.5 1.7,10.9 1.5,12.4 C1.4,13.3 1.4,14.2 1.6,15.1 C1.6,15.2 1.6,15.2 1.6,15.3 C1.6,15.3 1.6,15.3 1.6,15.3 Z" id="Shape"></path>
                <path d="M9.9,5.6 C9.8,4.9 9.4,4.3 8.9,3.9 C8.9,3.9 8.9,3.9 9,3.8 C10.1,2.7 11.2,1.6 12.3,0.4 C12.7,-5.55111512e-17 13.3,-5.55111512e-17 13.7,0.3 C14,0.6 14.2,1.2 14,1.6 C14,1.6 13.9,1.7 13.9,1.7 C13.7,1.8 13.6,1.9 13.4,2.1 C12.3,3.2 11.2,4.4 9.9,5.6 C10,5.6 10,5.6 9.9,5.6 Z" id="Shape"></path>
                <path d="M16.4,2.8 C16.2,2 15.7,1.6 14.9,1.5 C15.1,1.3 15.3,1.2 15.6,1.1 C16.4,1 17,1.8 16.7,2.5 C16.7,2.7 16.6,2.8 16.4,2.8 Z" id="Shape"></path>
            </g>
        </g>
    </g>
</svg>