<?xml version="1.0" encoding="UTF-8"?>
<svg width="12px" height="20px" viewBox="0 0 12 20" version="1.1" xmlns="http://www.w3.org/2000/svg" xmlns:xlink="http://www.w3.org/1999/xlink">
    <!-- Generator: Sketch 49.3 (51167) - http://www.bohemiancoding.com/sketch -->
    <title>thermometer</title>
    <desc>Created with Sketch.</desc>
    <defs></defs>
    <g id="Blog-Page" stroke="none" stroke-width="1" fill="none" fill-rule="evenodd">
        <g id="Profile-page" transform="translate(-795.000000, -957.000000)" fill="#BAB6BD" fill-rule="nonzero">
            <g id="thermometer" transform="translate(795.000000, 957.000000)">
                <path d="M5,11.17 L5,7 L7,7 L7,11.17 C8.37754669,11.6570363 9.20387209,13.0656662 8.95679568,14.5057331 C8.70971927,15.9457999 7.4611089,16.9984271 6,16.9984271 C4.5388911,16.9984271 3.29028073,15.9457999 3.04320432,14.5057331 C2.79612791,13.0656662 3.62245331,11.6570363 5,11.17 Z M4,10.54 C2.43212794,11.4452114 1.66772482,13.2906437 2.13629669,15.0393778 C2.60486857,16.7881119 4.18957729,18.0041016 6,18.0041016 C7.81042271,18.0041016 9.39513143,16.7881119 9.86370331,15.0393778 C10.3322752,13.2906437 9.56787206,11.4452114 8,10.54 L8,4 C8,2.8954305 7.1045695,2 6,2 C4.8954305,2 4,2.8954305 4,4 L4,10.53 L4,10.54 Z M2,9.53 L2,4 C2,1.790861 3.790861,4.05812251e-16 6,0 C8.209139,-4.05812251e-16 10,1.790861 10,4 L10,9.53 C11.8639283,11.1842552 12.5088704,13.8197596 11.6194595,16.1477926 C10.7300486,18.4758255 8.49212561,20.0099488 6,20 C3.51332533,19.999011 1.28495619,18.4642367 0.397497702,16.1413142 C-0.489960784,13.8183916 0.147427025,11.1887722 2,9.53 Z" id="Shape"></path>
            </g>
        </g>
    </g>
</svg>