<?xml version="1.0" encoding="UTF-8"?>
<svg width="16px" height="20px" viewBox="0 0 16 20" version="1.1" xmlns="http://www.w3.org/2000/svg" xmlns:xlink="http://www.w3.org/1999/xlink">
    <!-- Generator: Sketch 49.3 (51167) - http://www.bohemiancoding.com/sketch -->
    <title>Religion icon</title>
    <desc>Created with Sketch.</desc>
    <defs></defs>
    <g id="Blog-Page" stroke="none" stroke-width="1" fill="none" fill-rule="evenodd">
        <g id="Profile-page" transform="translate(-451.000000, -629.000000)" fill="#BAB6BD" fill-rule="nonzero">
            <g id="Religion-icon" transform="translate(451.000000, 629.000000)">
                <path d="M4,4 L3,4 C2.44771525,4 2,3.55228475 2,3 C2,2.44771525 2.44771525,2 3,2 L16,2 L16,1 C16,0.44771525 15.5522847,3.38176876e-17 15,0 L2,0 C0.8954305,-6.76353751e-17 1.3527075e-16,0.8954305 0,2 L0,18 C1.3527075e-16,19.1045695 0.8954305,20 2,20 L14,20 C15.1045695,20 16,19.1045695 16,18 L16,5 C16,4.44771525 15.5522847,4 15,4 L8,4" id="Shape"></path>
            </g>
        </g>
    </g>
</svg>