<?xml version="1.0" encoding="UTF-8"?>
<svg width="20px" height="17px" viewBox="0 0 20 17" version="1.1" xmlns="http://www.w3.org/2000/svg" xmlns:xlink="http://www.w3.org/1999/xlink">
    <!-- Generator: Sketch 49.3 (51167) - http://www.bohemiancoding.com/sketch -->
    <title>smoking</title>
    <desc>Created with Sketch.</desc>
    <defs></defs>
    <g id="Blog-Page" stroke="none" stroke-width="1" fill="none" fill-rule="evenodd">
        <g id="Profile-page" transform="translate(-791.000000, -794.000000)" fill="#BAB6BD" fill-rule="nonzero">
            <g id="smoking" transform="translate(791.000000, 794.000000)">
                <path d="M13.6754466,8.21888993 L12.2095838,8.21888993 L12.2095838,8.2238806 C11.2323419,8.2238806 10.4371204,7.24874067 10.4371204,6.2338153 C10.4371204,5.21888993 11.2323419,4.49253731 12.2095838,4.49253731 L12.2095838,3 C10.4419257,3 9,4.49253731 9,6.33334888 C9,8.17416045 10.4371204,9.66669776 12.2095838,9.66669776 L12.2095838,9.66170709 L13.6754466,9.66170709 C14.6766255,9.66170709 15.5628796,10.398041 15.5628796,11.7064832 L15.5628796,13 L17,13 L17,11.363153 C16.9999551,9.57210821 15.4670417,8.21888993 13.6754466,8.21888993 Z" id="Shape"></path>
                <rect id="Rectangle-path" x="16" y="14" width="2" height="3"></rect>
                <rect id="Rectangle-path" x="0" y="14" width="15" height="3"></rect>
                <path d="M17.1363981,5.72998623 C17.6954906,5.12497206 18.0454774,4.28000534 18.0454774,3.35000757 C18.0454774,1.49999639 16.6772775,0 15,0 L15,1.49999639 C15.9272754,1.49999639 16.6818372,2.33001002 16.6818372,3.35000757 C16.6818372,4.37000512 15.9272754,5.20001875 15,5.20001875 L15,6.70001514 C17.0409007,6.70001514 18.6363598,8.52499513 18.6363598,10.770021 L18.6363598,13 L20,13 L20,10.7650054 C20.0000426,8.5399951 18.8363887,6.61999971 17.1363981,5.72998623 Z" id="Shape"></path>
                <rect id="Rectangle-path" x="18" y="14" width="2" height="3"></rect>
            </g>
        </g>
    </g>
</svg>