<?xml version="1.0" encoding="UTF-8"?>
<svg width="38px" height="38px" viewBox="0 0 38 38" version="1.1" xmlns="http://www.w3.org/2000/svg" xmlns:xlink="http://www.w3.org/1999/xlink">
    <!-- Generator: Sketch 49.3 (51167) - http://www.bohemiancoding.com/sketch -->
    <title>Boost</title>
    <desc>Created with Sketch.</desc>
    <defs></defs>
    <g id="Blog-Page" stroke="none" stroke-width="1" fill="none" fill-rule="evenodd">
        <g id="Matchmaker-benefits-page-alternate" transform="translate(-136.000000, -932.000000)" fill-rule="nonzero">
            <g id="Boost" transform="translate(136.000000, 932.000000)">
                <g id="Layer_2-2" fill="#FFFFFF">
                    <g id="Layer_1-2-2">
                        <path d="M18.916875,0 C8.46937342,-6.39724968e-16 1.27944994e-15,8.46937342 0,18.916875 C-1.27944994e-15,29.3643766 8.46937342,37.83375 18.916875,37.83375 C29.3643766,37.83375 37.83375,29.3643766 37.83375,18.916875 C37.8348,13.9001718 35.8426583,9.08858051 32.2956846,5.54086445 C28.7487109,1.99314839 23.9375366,-1.09874303e-07 18.9208333,0 M18.9208333,1.91979167 C28.3053615,1.92197767 35.911457,9.5310266 35.9099998,18.9155549 C35.9085425,28.3000833 28.3000843,35.9067697 18.9155559,35.9060412 C9.53102743,35.9053127 1.92375025,28.2974451 1.92375,18.9129167 C1.93900529,9.53419909 9.53815743,1.93504696 18.916875,1.91979167" id="Shape"></path>
                        <path d="M33.879375,18.9129167 C33.8837461,27.1764755 27.1883519,33.8789573 18.9247931,33.8833291 C10.6612342,33.887701 3.95875183,27.1923075 3.95437919,18.9287486 C3.95000655,10.6651897 10.6453995,3.96270674 18.9089583,3.95833333 C27.1700687,3.96051708 33.8670888,10.6557655 33.8714583,18.916875" id="Shape"></path>
                    </g>
                </g>
                <path d="M18.9208333,30.0833333 C14.3969385,30.0833308 10.3187199,27.3575662 8.58861171,23.1775721 C6.85850352,18.997578 7.81739145,14.1869447 11.0179672,10.9897678 C14.2185429,7.79259096 19.0301923,6.83881493 23.2083458,8.57336343 C27.3864993,10.3079119 30.1079291,14.3890243 30.103125,18.9129167 C30.0987542,25.0849937 25.0929116,30.0855205 18.9208333,30.0833333 Z M12.6666667,25.3016667 C16.445082,22.7291415 21.412418,22.7291415 25.1908333,25.3016667 C28.7126839,21.8408162 28.7645125,16.1809752 25.306631,12.6562096 C21.8487495,9.1314439 16.1889543,9.07484594 12.661276,12.529756 C9.13359773,15.9846661 9.07223048,21.6444117 12.5241667,25.175 L12.6666667,25.3016667 Z M19.49875,16.755625 L22.8791667,13.3791667 L24.4625,14.9625 L21.0860417,18.3429167 C21.3472668,19.3205613 20.9194796,20.3517982 20.0429345,20.8574625 C19.1663894,21.3631267 18.0595204,21.2172075 17.343969,20.501656 C16.6284175,19.7861046 16.4824983,18.6792356 16.9881625,17.8026905 C17.4938268,16.9261454 18.5250637,16.4983582 19.5027083,16.7595833 L19.49875,16.755625 Z" id="Shape" fill="#000000"></path>
            </g>
        </g>
    </g>
</svg>