<?xml version="1.0" encoding="UTF-8"?>
<svg width="38px" height="30px" viewBox="0 0 38 30" version="1.1" xmlns="http://www.w3.org/2000/svg" xmlns:xlink="http://www.w3.org/1999/xlink">
    <!-- Generator: Sketch 49.3 (51167) - http://www.bohemiancoding.com/sketch -->
    <title>camera</title>
    <desc>Created with Sketch.</desc>
    <defs></defs>
    <g id="Blog-Page" stroke="none" stroke-width="1" fill="none" fill-rule="evenodd">
        <g id="Matches" transform="translate(-184.000000, -197.000000)" fill="#FFFFFF" fill-rule="nonzero">
            <g id="camera" transform="translate(184.000000, 197.000000)">
                <path d="M0,7.5 C0,5.4375 1.71,3.75 3.8,3.75 L9.5,3.75 L13.3,0 L24.7,0 L28.5,3.75 L34.2,3.75 C36.298682,3.75 38,5.42893219 38,7.5 L38,26.25 C38,28.3210678 36.298682,30 34.2,30 L3.8,30 C1.70131795,30 2.57014425e-16,28.3210678 0,26.25 L0,7.5 Z M19.5,27 C24.7467051,27 29,22.7467051 29,17.5 C29,12.2532949 24.7467051,8 19.5,8 C14.2532949,8 10,12.2532949 10,17.5 C10,22.7467051 14.2532949,27 19.5,27 Z M19.5000001,23 C17.5350393,23 15.7193407,21.951706 14.7368603,20.25 C13.7543799,18.5482941 13.7543799,16.4517059 14.7368603,14.75 C15.7193407,13.048294 17.5350393,12 19.5000001,12 C22.5375662,12 25,14.4624339 25,17.5 C25,20.5375661 22.5375662,23 19.5000001,23 Z" id="Shape"></path>
            </g>
        </g>
    </g>
</svg>