<?xml version="1.0" encoding="UTF-8"?>
<svg width="67px" height="67px" viewBox="0 0 67 67" version="1.1" xmlns="http://www.w3.org/2000/svg" xmlns:xlink="http://www.w3.org/1999/xlink">
    <!-- Generator: Sketch 49.3 (51167) - http://www.bohemiancoding.com/sketch -->
    <title>Values</title>
    <desc>Created with Sketch.</desc>
    <defs></defs>
    <g id="Blog-Page" stroke="none" stroke-width="1" fill="none" fill-rule="evenodd">
        <g id="Homepage-with-Register" transform="translate(-1076.000000, -1973.000000)" fill="#FFFFFF" fill-rule="nonzero">
            <g id="Values" transform="translate(1076.000000, 1973.000000)">
                <path d="M33.5,0 C14.9984609,-1.13289253e-15 2.26578507e-15,14.9984609 0,33.5 C-2.26578507e-15,52.0015391 14.9984609,67 33.5,67 C52.0015391,67 67,52.0015391 67,33.5 C67,24.6152476 63.4705458,16.0943915 57.1880772,9.81192283 C50.9056085,3.52945415 42.3847524,5.4403418e-16 33.5,0 M33.5,3.40583333 C50.1205493,3.40583333 63.5941667,16.8794507 63.5941667,33.5 C63.5941667,50.1205493 50.1205493,63.5941667 33.5,63.5941667 C16.8794507,63.5941667 3.40583333,50.1205493 3.40583333,33.5 C3.42122396,16.8858299 16.8858299,3.42122396 33.5,3.40583333" id="Shape"></path>
                <path d="M33.5,6.97916667 C18.8529482,6.97916667 6.97916667,18.8529482 6.97916667,33.5 C6.97916667,48.1470518 18.8529482,60.0208333 33.5,60.0208333 C48.1470518,60.0208333 60.0208333,48.1470518 60.0208333,33.5 C60.0208333,26.4662377 57.2266821,19.7205599 52.2530611,14.7469389 C47.2794401,9.77331787 40.5337623,6.97916667 33.5,6.97916667 Z M28.0492708,49.0635417 L14.9284375,35.9427083 L19.8627083,31.0084375 L28.0422917,39.2159375 L47.4094792,19.84875 L52.34375,24.7830208 L28.0492708,49.0635417 Z" id="Shape"></path>
            </g>
        </g>
    </g>
</svg>