<?xml version="1.0" encoding="UTF-8"?>
<svg width="20px" height="16px" viewBox="0 0 20 16" version="1.1" xmlns="http://www.w3.org/2000/svg" xmlns:xlink="http://www.w3.org/1999/xlink">
    <!-- Generator: Sketch 49.3 (51167) - http://www.bohemiancoding.com/sketch -->
    <title>Shape</title>
    <desc>Created with Sketch.</desc>
    <defs></defs>
    <g id="Blog-Page" stroke="none" stroke-width="1" fill="none" fill-rule="evenodd">
        <g id="Profile-page" transform="translate(-1270.000000, -185.000000)" fill="#F89D46" fill-rule="nonzero">
            <g id="Group-7" transform="translate(1252.000000, 172.000000)">
                <g id="Send-message-Copy" transform="translate(18.000000, 13.000000)">
                    <g id="envelope">
                        <path d="M18,0 C19.1045695,0 20,0.8954305 20,2 L20,14 C20,15.1045695 19.1045695,16 18,16 L2,16 C0.8954305,16 1.3527075e-16,15.1045695 0,14 L0,2 C0,0.9 0.9,0 2,0 L18,0 Z M13.63,9.1 L20,14 L20,12 L14.88,8.1 L20,4 L20,2 L10,10 L0,2 L0,4 L5.12,8.1 L0,12 L0,14 L6.37,9.1 L10,12 L13.63,9.1 Z" id="Shape"></path>
                    </g>
                </g>
            </g>
        </g>
    </g>
</svg>