<?xml version="1.0" encoding="utf-8"?>
<!-- Generator: Adobe Illustrator 22.1.0, SVG Export Plug-In . SVG Version: 6.00 Build 0)  -->
<svg version="1.1" id="Layer_1" xmlns="http://www.w3.org/2000/svg" xmlns:xlink="http://www.w3.org/1999/xlink" x="0px" y="0px"
	 viewBox="0 0 26 26" style="enable-background:new 0 0 26 26;" xml:space="preserve">
<style type="text/css">
	.st0{fill:#FFFFFF;}
</style>
<title>Profile visitors</title>
<desc>Created with Sketch.</desc>
<path id="Shape" class="st0" d="M13,0C5.8,0,0,5.8,0,13s5.8,13,13,13s13-5.8,13-13c0-3.4-1.4-6.8-3.8-9.2S16.4,0,13,0 M13,1.3
	c6.4,0,11.7,5.2,11.7,11.7S19.4,24.7,13,24.7S1.3,19.4,1.3,13C1.3,6.6,6.6,1.3,13,1.3"/>
<g>
	<path class="st0" d="M20.3,5.7c-1.9-1.9-4.5-3-7.3-3C7.3,2.7,2.7,7.3,2.7,13S7.3,23.3,13,23.3S23.3,18.7,23.3,13
		C23.3,10.3,22.2,7.7,20.3,5.7z M13,16.9c-2.7,0-5.2-1.5-6.4-3.9c1.2-2.4,3.7-3.9,6.4-3.9s5.2,1.5,6.4,3.9
		C18.2,15.4,15.7,16.9,13,16.9z"/>
	<path class="st0" d="M12,10.6c-1,0.4-1.6,1.4-1.6,2.4c0,1.4,1.2,2.6,2.6,2.6c1.1,0,2-0.6,2.4-1.6c0.4-1,0.2-2.1-0.6-2.9
		C14.1,10.4,13,10.2,12,10.6z M13,14.3c-0.5,0-1-0.3-1.2-0.8c-0.2-0.5-0.1-1.1,0.3-1.4s0.9-0.5,1.4-0.3c0.5,0.2,0.8,0.7,0.8,1.2
		C14.3,13.7,13.7,14.3,13,14.3z"/>
</g>
</svg>
