<?xml version="1.0" encoding="utf-8"?>
<!-- Generator: Adobe Illustrator 22.1.0, SVG Export Plug-In . SVG Version: 6.00 Build 0)  -->
<svg version="1.1" id="Layer_1" xmlns="http://www.w3.org/2000/svg" xmlns:xlink="http://www.w3.org/1999/xlink" x="0px" y="0px"
	 viewBox="0 0 39 38" style="enable-background:new 0 0 39 38;" xml:space="preserve">
<style type="text/css">
	.st0{fill:#F86849;}
</style>
<title>FavouriteIcon</title>
<desc>Created with Sketch.</desc>
<path id="Shape" class="st0" d="M19.6,0C11.8,0,4.8,4.6,1.9,11.7S0.5,26.9,6,32.3s13.8,7,20.9,4.1c7.2-2.9,11.9-9.8,11.9-17.5
	c0-5-2-9.8-5.6-13.4S24.7,0,19.6,0 M19.6,1.9c9.5,0,17.3,7.6,17.3,17s-7.7,17-17.3,17s-17.3-7.6-17.3-17C2.4,9.5,10.1,1.9,19.6,1.9"
	/>
<g>
	<path class="st0" d="M19.6,4c-6.1,0-11.7,3.6-14,9.2c-2.4,5.6-1.1,12,3.3,16.3c4.3,4.3,10.9,5.6,16.6,3.2c5.7-2.3,9.4-7.8,9.4-13.8
		C34.8,10.7,28,4,19.6,4z M26,28.4L19.6,25l-6.4,3.3l1.3-7.1l-5.2-5l7.2-1l3.2-6.4l3.2,6.4l7.2,1l-5.2,5L26,28.4z"/>
	<polygon class="st0" points="25.8,17.7 22.6,17.2 21.5,17.1 21.1,16.1 19.6,13.2 18.1,16.1 17.7,17 16.7,17.2 13.4,17.7 15.8,19.9 
		16.5,20.6 16.3,21.6 15.8,24.9 18.7,23.4 19.6,22.9 20.5,23.4 23.5,24.9 22.9,21.6 22.7,20.7 23.5,20 	"/>
	<polygon class="st0" points="34.8,18.9 34.8,18.9 34.8,18.9 	"/>
</g>
</svg>
