<?xml version="1.0" encoding="utf-8"?>
<!-- Generator: Adobe Illustrator 22.1.0, SVG Export Plug-In . SVG Version: 6.00 Build 0)  -->
<svg version="1.1" id="Layer_1" xmlns="http://www.w3.org/2000/svg" xmlns:xlink="http://www.w3.org/1999/xlink" x="0px" y="0px"
	 viewBox="0 0 26 26" style="enable-background:new 0 0 26 26;" xml:space="preserve">
<style type="text/css">
	.st0{fill:#FFFFFF;}
</style>
<title>Account</title>
<desc>Created with Sketch.</desc>
<path id="Shape" class="st0" d="M12.9,0C5.8,0,0,5.8,0,12.9s5.8,12.9,12.9,12.9s12.9-5.8,12.9-12.9c0-3.4-1.4-6.7-3.8-9.2
	S16.4,0,12.9,0 M12.9,1.3c6.4,0,11.6,5.2,11.6,11.6s-5.2,11.6-11.6,11.6S1.3,19.4,1.3,12.9C1.3,6.5,6.5,1.3,12.9,1.3"/>
<g>
	<circle class="st0" cx="12.9" cy="12.9" r="1.8"/>
	<path class="st0" d="M23.2,12.9c0-5.7-4.6-10.2-10.2-10.2C7.3,2.7,2.7,7.3,2.7,13c0,5.7,4.6,10.2,10.2,10.2S23.2,18.6,23.2,12.9
		L23.2,12.9z M18.9,13.5L17,14c-0.1,0.4-0.2,0.7-0.4,1l1,1.7l-0.8,0.8l-1.7-1c-0.3,0.2-0.7,0.3-1,0.4l-0.5,1.9h-1.2L11.9,17
		c-0.4-0.1-0.7-0.2-1-0.4l-1.7,1l-0.8-0.8l1-1.7c-0.2-0.3-0.3-0.7-0.4-1L7,13.5v-1.2l1.9-0.5c0.1-0.4,0.2-0.7,0.4-1l-1-1.7l0.8-0.8
		l1.7,1c0.3-0.2,0.7-0.3,1-0.4L12.3,7h1.2L14,8.9c0.4,0.1,0.7,0.2,1,0.4l1.7-1l0.8,0.8l-1,1.7c0.2,0.3,0.3,0.7,0.4,1l1.9,0.5V13.5z"
		/>
</g>
</svg>
