<?xml version="1.0" encoding="UTF-8"?>
<svg width="67px" height="67px" viewBox="0 0 67 67" version="1.1" xmlns="http://www.w3.org/2000/svg" xmlns:xlink="http://www.w3.org/1999/xlink">
    <!-- Generator: Sketch 49.3 (51167) - http://www.bohemiancoding.com/sketch -->
    <title>Matches Copy 4</title>
    <desc>Created with Sketch.</desc>
    <defs></defs>
    <g id="Blog-Page" stroke="none" stroke-width="1" fill="none" fill-rule="evenodd">
        <g id="Homepage-with-Register" transform="translate(-738.000000, -1738.000000)" fill="#FFFFFF" fill-rule="nonzero">
            <g id="Different" transform="translate(0.000000, 1386.000000)">
                <g id="Matches-Copy-4" transform="translate(738.000000, 352.000000)">
                    <path d="M33.5,0 C14.9984609,-1.13289253e-15 2.26578507e-15,14.9984609 0,33.5 C-2.26578507e-15,52.0015391 14.9984609,67 33.5,67 C52.0015391,67 67,52.0015391 67,33.5 C67,24.6152476 63.4705458,16.0943915 57.1880772,9.81192283 C50.9056085,3.52945415 42.3847524,5.4403418e-16 33.5,0 M33.5,3.40583333 C50.1205493,3.40583333 63.5941667,16.8794507 63.5941667,33.5 C63.5941667,50.1205493 50.1205493,63.5941667 33.5,63.5941667 C16.8794507,63.5941667 3.40583333,50.1205493 3.40583333,33.5 C3.42122396,16.8858299 16.8858299,3.42122396 33.5,3.40583333" id="Shape"></path>
                    <path d="M45.30875,22.905625 C44.6073496,22.2357877 43.611499,21.9723352 42.670625,22.2077083 C39.488125,23.03125 36.2916667,28.8658333 35.2378125,31.2736458 L35.2378125,48.4354167 C44.555,39.8859375 46.9488542,32.8648958 47.528125,29.270625 C47.9841991,26.9044125 47.1371928,24.4752625 45.30875,22.905625 Z" id="Shape"></path>
                    <path d="M33.5,6.97916667 C18.8529482,6.97916667 6.97916667,18.8529482 6.97916667,33.5 C6.97916667,48.1470518 18.8529482,60.0208333 33.5,60.0208333 C48.1470518,60.0208333 60.0208333,48.1470518 60.0208333,33.5 C60.0208333,26.4662377 57.2266821,19.7205599 52.2530611,14.7469389 C47.2794401,9.77331787 40.5337623,6.97916667 33.5,6.97916667 Z M50.9479167,29.8010417 C50.0825,35.2029167 46.5370833,43.7175 34.58875,53.5860417 L33.5,54.5282292 L32.3833333,53.6069792 C20.4280208,43.7384375 16.8895833,35.2238542 16.0520833,29.8219792 C15.392822,26.2130362 16.7258811,22.5284609 19.5416667,20.1767708 C21.0973477,18.8454001 23.2009376,18.3487552 25.1878125,18.84375 C28.851875,19.7789583 31.7901042,23.9455208 33.4930208,27.0023958 C35.2029167,23.9455208 38.1411458,19.7789583 41.7982292,18.84375 C43.7894561,18.3427405 45.8999741,18.8397922 47.4583333,20.1767708 C50.2753637,22.5275888 51.6086926,26.21291 50.9479167,29.8219792 L50.9479167,29.8010417 Z" id="Shape"></path>
                    <path d="M24.3223958,22.2007292 C24.0948532,22.1394513 23.8601261,22.1089368 23.6244792,22.11 C22.8956011,22.1369819 22.1992166,22.418499 21.6563542,22.905625 C19.8254171,24.4735606 18.9778934,26.9041946 19.4369792,29.270625 C20.01625,32.8648958 22.403125,39.8859375 31.7203125,48.4354167 L31.7203125,31.2736458 C30.3244792,28.0213542 27.21875,22.9335417 24.3223958,22.2007292 Z" id="Shape"></path>
                </g>
            </g>
        </g>
    </g>
</svg>