<?xml version="1.0" encoding="utf-8"?>
<!-- Generator: Adobe Illustrator 22.1.0, SVG Export Plug-In . SVG Version: 6.00 Build 0)  -->
<svg version="1.1" id="Layer_1" xmlns="http://www.w3.org/2000/svg" xmlns:xlink="http://www.w3.org/1999/xlink" x="0px" y="0px"
	 viewBox="0 0 26 26" style="enable-background:new 0 0 26 26;" xml:space="preserve">
<style type="text/css">
	.st0{fill:#FFFFFF;}
</style>
<title>Home</title>
<desc>Created with Sketch.</desc>
<g id="Blog-Page">
	<g id="Home-Mobile-Nav" transform="translate(-22.000000, -136.000000)">
		<g id="Home" transform="translate(22.000000, 136.000000)">
			<g id="SearchInvert-Copy">
				<path id="Shape" class="st0" d="M13,0C5.8,0,0,5.8,0,13s5.8,13,13,13s13-5.8,13-13c0-3.4-1.4-6.8-3.8-9.2S16.4,0,13,0 M13,1.3
					c6.4,0,11.7,5.2,11.7,11.7S19.4,24.7,13,24.7S1.3,19.4,1.3,13C1.3,6.6,6.6,1.3,13,1.3"/>
				<path class="st0" d="M20.3,5.7c-1.9-1.9-4.5-3-7.3-3C7.3,2.7,2.7,7.3,2.7,13S7.3,23.3,13,23.3c5.7,0,10.3-4.6,10.3-10.3
					C23.3,10.3,22.2,7.7,20.3,5.7z M17.2,12v6h-3v-3.6h-2.4V18h-3v-6H7l6-6l6,6H17.2z"/>
			</g>
		</g>
	</g>
</g>
</svg>
