<?xml version="1.0" encoding="utf-8"?>
<!-- Generator: Adobe Illustrator 22.1.0, SVG Export Plug-In . SVG Version: 6.00 Build 0)  -->
<svg version="1.1" id="Layer_1" xmlns="http://www.w3.org/2000/svg" xmlns:xlink="http://www.w3.org/1999/xlink" x="0px" y="0px"
	 viewBox="0 0 38 38" style="enable-background:new 0 0 38 38;" xml:space="preserve">
<style type="text/css">
	.st0{fill:#F86849;}
</style>
<title>Ideal Partner</title>
<desc>Created with Sketch.</desc>
<path id="Shape" class="st0" d="M19,0C8.5,0,0,8.5,0,19s8.5,19,19,19s19-8.5,19-19c0-5-2-9.9-5.6-13.4S24,0,19,0 M19,1.9
	c9.4,0,17.1,7.6,17.1,17.1S28.4,36.1,19,36.1S1.9,28.4,1.9,19C1.9,9.6,9.6,1.9,19,1.9"/>
<g>
	<path class="st0" d="M23.7,20.3c-0.7,0-1.4,0.3-1.9,0.8c-0.9,0.9-1,2.3-0.3,3.4s2.1,1.5,3.2,1c1.2-0.5,1.8-1.7,1.6-3
		S25,20.3,23.7,20.3z"/>
	<path class="st0" d="M29.6,8.4C26.8,5.5,23,4,19,4C10.7,4,4,10.7,4,19s6.7,15,15,15s15-6.7,15-15C34,15,32.5,11.2,29.6,8.4z
		 M16.8,22.1l1.4,1.4l-3.8,3.8l-3.8-3.8l1.4-1.4l1.4,1.4v-3.5c-0.3-0.1-0.5-0.1-0.8-0.2c-2-0.8-3.2-3-2.7-5.1
		c0.4-2.1,2.3-3.7,4.5-3.7c1.2,0,2.4,0.5,3.2,1.3c1.5,1.5,1.8,4,0.6,5.8c-0.7,1-1.7,1.7-2.8,1.9v3.5L16.8,22.1z M27.5,25.5
		C26.3,27.3,24,28,22,27.2c-2-0.8-3.2-3-2.7-5.1c0.4-1.8,1.8-3.2,3.5-3.6v-3.6h-2v-2h2V11h2v1.9h2v2h-2v3.6c0.8,0.2,1.6,0.6,2.3,1.2
		C28.5,21.2,28.8,23.7,27.5,25.5z"/>
	<path class="st0" d="M15.4,18c1.2-0.5,1.8-1.7,1.6-3c-0.3-1.2-1.3-2.1-2.6-2.1c-0.7,0-1.4,0.3-1.9,0.8c-0.9,0.9-1,2.3-0.3,3.3
		C12.9,18.1,14.2,18.5,15.4,18z"/>
</g>
</svg>
