<?xml version="1.0" encoding="UTF-8"?>
<svg width="20px" height="16px" viewBox="0 0 20 16" version="1.1" xmlns="http://www.w3.org/2000/svg" xmlns:xlink="http://www.w3.org/1999/xlink">
    <!-- Generator: Sketch 49.3 (51167) - http://www.bohemiancoding.com/sketch -->
    <title>Shape</title>
    <desc>Created with Sketch.</desc>
    <defs></defs>
    <g id="Blog-Page" stroke="none" stroke-width="1" fill="none" fill-rule="evenodd">
        <g id="Profile-page" transform="translate(-1270.000000, -249.000000)" fill="#1D0F24" fill-rule="nonzero">
            <g id="Group-7" transform="translate(1252.000000, 172.000000)">
                <g id="Group-11" transform="translate(0.000000, 64.000000)">
                    <g id="Group-9" transform="translate(18.000000, 7.000000)">
                        <path d="M0,8 C0,6.9 0.9,6 2,6 L18,6 C19.1045695,6 20,6.8954305 20,8 L20,20 C20,21.1045695 19.1045695,22 18,22 L2,22 C0.8954305,22 1.3527075e-16,21.1045695 0,20 L0,8 Z M11,17 L8,14 L2,20 L18,20 L13,15 L11,17 Z M15,13 C16.1045695,13 17,12.1045695 17,11 C17,9.8954305 16.1045695,9 15,9 C13.8954305,9 13,9.8954305 13,11 C13,12.1045695 13.8954305,13 15,13 Z" id="Shape"></path>
                    </g>
                </g>
            </g>
        </g>
    </g>
</svg>