<?xml version="1.0" encoding="UTF-8"?>
<svg width="21px" height="21px" viewBox="0 0 21 21" version="1.1" xmlns="http://www.w3.org/2000/svg" xmlns:xlink="http://www.w3.org/1999/xlink">
    <!-- Generator: Sketch 49.3 (51167) - http://www.bohemiancoding.com/sketch -->
    <title>information-outline</title>
    <desc>Created with Sketch.</desc>
    <defs></defs>
    <g id="Blog-Page" stroke="none" stroke-width="1" fill="none" fill-rule="evenodd">
        <g id="Questionnaire" transform="translate(-137.000000, -407.000000)" fill="#F9C659" fill-rule="nonzero">
            <g id="information-outline" transform="translate(137.000000, 407.000000)">
                <path d="M3.93,18.07 C1.33043416,15.5592553 0.287874028,11.8412211 1.20302843,8.34492676 C2.11818284,4.84863244 4.84863244,2.11818284 8.34492676,1.20302843 C11.8412211,0.287874028 15.5592553,1.33043416 18.07,3.93 C21.8597221,7.85378887 21.8055237,14.0908478 17.9481858,17.9481858 C14.0908478,21.8055237 7.85378887,21.8597221 3.93,18.07 Z M16.66,16.66 C19.7859317,13.5340683 19.7859317,8.46593168 16.66,5.34 C13.5340683,2.21406832 8.46593168,2.21406832 5.34,5.34 C2.21406832,8.46593168 2.21406832,13.5340683 5.34,16.66 C8.46593168,19.7859317 13.5340683,19.7859317 16.66,16.66 Z M10,12 L10,10 L12,10 L12,16 L10,16 L10,12 Z M10,6 L12,6 L12,8 L10,8 L10,6 Z" id="Shape"></path>
            </g>
        </g>
    </g>
</svg>