<?xml version="1.0" encoding="utf-8"?>
<!-- Generator: Adobe Illustrator 22.1.0, SVG Export Plug-In . SVG Version: 6.00 Build 0)  -->
<svg version="1.1" id="Layer_1" xmlns="http://www.w3.org/2000/svg" xmlns:xlink="http://www.w3.org/1999/xlink" x="0px" y="0px"
	 viewBox="0 0 38 38" style="enable-background:new 0 0 38 38;" xml:space="preserve">
<style type="text/css">
	.st0{fill:#F86849;}
</style>
<title>InterestsIcon</title>
<desc>Created with Sketch.</desc>
<path id="Shape" class="st0" d="M19,0C8.5,0,0,8.5,0,19s8.5,19,19,19s19-8.5,19-19c0-5-2-9.9-5.6-13.4S24,0,19,0 M19,1.9
	c9.4,0,17.1,7.6,17.1,17.1S28.4,36.1,19,36.1S1.9,28.4,1.9,19C1.9,9.6,9.6,1.9,19,1.9"/>
<g>
	<path class="st0" d="M12.5,12.3c-1.8,1.8-2.8,4.2-2.8,6.8s1.1,5,2.9,6.7C15.8,21.9,15.8,16.2,12.5,12.3z"/>
	<path class="st0" d="M24.1,11.1c-3.1-2-7-2-10,0c3.9,4.6,3.9,11.3,0.1,15.9c3,1.8,6.8,1.8,9.8-0.1C20.2,22.3,20.2,15.7,24.1,11.1z"
		/>
	<path class="st0" d="M29.6,8.4C26.8,5.5,23,4,19,4C10.7,4,4,10.7,4,19s6.7,15,15,15s15-6.7,15-15C34,15,32.5,11.2,29.6,8.4z
		 M19,30.3c-4.6,0-8.7-2.8-10.5-7C6.8,19.1,7.7,14.2,11,11s8.1-4.2,12.4-2.5c4.2,1.8,7,5.9,7,10.5C30.3,25.3,25.3,30.3,19,30.3z"/>
	<path class="st0" d="M25.6,12.4L25.6,12.4c-3.3,3.8-3.3,9.4-0.1,13.3c1.8-1.7,2.8-4.1,2.8-6.6S27.4,14.2,25.6,12.4z"/>
</g>
</svg>
