<?xml version="1.0" encoding="UTF-8"?>
<svg width="20px" height="20px" viewBox="0 0 20 20" version="1.1" xmlns="http://www.w3.org/2000/svg" xmlns:xlink="http://www.w3.org/1999/xlink">
    <!-- Generator: Sketch 49.3 (51167) - http://www.bohemiancoding.com/sketch -->
    <title>buoy</title>
    <desc>Created with Sketch.</desc>
    <defs></defs>
    <g id="Blog-Page" stroke="none" stroke-width="1" fill="none" fill-rule="evenodd">
        <g id="Dashboard-Mobile-Copy" transform="translate(-287.000000, -320.000000)" fill="#FFFFFF" fill-rule="nonzero">
            <g id="Group-12-Copy" transform="translate(22.000000, 230.000000)">
                <g id="Group" transform="translate(1.000000, 20.000000)">
                    <g id="buoy" transform="translate(264.000000, 70.000000)">
                        <path d="M17.16,6.42 C16.3839254,4.87184885 15.1281512,3.61607465 13.58,2.84 L12.24,5.53 C13.2035864,6.01447998 13.98552,6.79641359 14.47,7.76 L17.16,6.42 Z M17.16,13.58 L14.47,12.24 C13.98552,13.2035864 13.2035864,13.98552 12.24,14.47 L13.58,17.16 C15.1281512,16.3839254 16.3839254,15.1281512 17.16,13.58 Z M6.42,2.84 C4.87184885,3.61607465 3.61607465,4.87184885 2.84,6.42 L5.53,7.76 C6.01447998,6.79641359 6.79641359,6.01447998 7.76,5.53 L6.42,2.84 Z M2.84,13.58 C3.61607465,15.1281512 4.87184885,16.3839254 6.42,17.16 L7.76,14.47 C6.79641359,13.98552 6.01447998,13.2035864 5.53,12.24 L2.84,13.58 Z M10,20 C4.4771525,20 6.76353751e-16,15.5228475 0,10 C-6.76353751e-16,4.4771525 4.4771525,1.01453063e-15 10,0 C15.5228475,3.38176876e-16 20,4.4771525 20,10 C20,15.5228475 15.5228475,20 10,20 Z M10,13 C11.6568542,13 13,11.6568542 13,10 C13,8.34314575 11.6568542,7 10,7 C8.34314578,7.00000003 7.00000006,8.34314578 7.00000006,10 C7.00000006,11.6568542 8.34314578,13 10,13 Z" id="Shape"></path>
                    </g>
                </g>
            </g>
        </g>
    </g>
</svg>