<?xml version="1.0" encoding="UTF-8"?>
<svg width="41px" height="46px" viewBox="0 0 41 46" version="1.1" xmlns="http://www.w3.org/2000/svg" xmlns:xlink="http://www.w3.org/1999/xlink">
    <!-- Generator: Sketch 49.3 (51167) - http://www.bohemiancoding.com/sketch -->
    <title>lock-closed copy 4</title>
    <desc>Created with Sketch.</desc>
    <defs></defs>
    <g id="Blog-Page" stroke="none" stroke-width="1" fill="none" fill-rule="evenodd">
        <g id="Profile-page-Gallery" transform="translate(-326.000000, -1113.000000)" fill="#FFFFFF" fill-rule="nonzero">
            <g id="lock-closed-copy-4" transform="translate(326.000000, 1113.000000)">
                <path d="M6.83333333,18.4 L6.83333333,13.8 C6.83333333,6.17847045 12.9521084,1.40005226e-15 20.5,0 C28.0478916,-1.40005226e-15 34.1666667,6.17847045 34.1666667,13.8 L34.1666667,18.4 L36.4444444,18.4 C38.9604083,18.4 41,20.4594902 41,23 L41,41.4 C41,43.9405098 38.9604083,46 36.4444444,46 L4.55555556,46 C2.0395917,46 5.05768267e-16,43.9405098 0,41.4 L0,23 C0,20.47 2.05,18.4 4.55555556,18.4 L6.83333333,18.4 Z M18.2502034,33.7051431 L18.2502034,39 L22.7497966,39 L22.7497966,33.7051431 C24.5134932,32.6494241 25.373369,30.4971553 24.8462733,28.4576626 C24.3191776,26.41817 22.5365414,25 20.5,25 C18.4634586,25 16.6808224,26.41817 16.1537267,28.4576626 C15.626631,30.4971553 16.4865068,32.6494241 18.2502034,33.7051431 Z M14,14.2 L14,19 L28,19 L28,14.2 C28,10.2235498 24.8659932,7 21,7 C17.1340068,7 14,10.2235498 14,14.2 Z" id="Shape"></path>
            </g>
        </g>
    </g>
</svg>