<?xml version="1.0" encoding="utf-8"?>
<!-- Generator: Adobe Illustrator 22.1.0, SVG Export Plug-In . SVG Version: 6.00 Build 0)  -->
<svg version="1.1" id="Layer_1" xmlns="http://www.w3.org/2000/svg" xmlns:xlink="http://www.w3.org/1999/xlink" x="0px" y="0px"
	 viewBox="0 0 38 38" style="enable-background:new 0 0 38 38;" xml:space="preserve">
<style type="text/css">
	.st0{fill:#F86849;}
</style>
<title>MatchesIcon</title>
<desc>Created with Sketch.</desc>
<path id="Shape" class="st0" d="M19,0C8.5,0,0,8.5,0,19s8.5,19,19,19s19-8.5,19-19c0-5-2-9.9-5.6-13.4S24,0,19,0 M19,1.9
	c9.4,0,17.1,7.6,17.1,17.1S28.4,36.1,19,36.1S1.9,28.4,1.9,19C1.9,9.6,9.6,1.9,19,1.9"/>
<g>
	<path class="st0" d="M25.7,13c-0.4-0.4-1-0.5-1.5-0.4c-1.8,0.5-3.6,3.8-4.2,5.1h0v9.7c5.3-4.8,6.6-8.8,7-10.9
		C27.2,15.3,26.7,13.9,25.7,13z"/>
	<path class="st0" d="M13.8,12.6c-0.1,0-0.3-0.1-0.4-0.1c-0.4,0-0.8,0.2-1.1,0.5c-1,0.9-1.5,2.3-1.3,3.6c0.3,2,1.7,6,7,10.9v-9.7
		C17.2,15.9,15.4,13,13.8,12.6z"/>
	<path class="st0" d="M29.6,8.4C26.8,5.5,23,4,19,4C10.7,4,4,10.7,4,19s6.7,15,15,15s15-6.7,15-15C34,15,32.5,11.2,29.6,8.4z
		 M28.9,16.9c-0.5,3.1-2.5,7.9-9.3,13.5L19,30.9l-0.6-0.5C11.6,24.8,9.6,20,9.1,16.9c-0.4-2,0.4-4.1,2-5.5c0.9-0.8,2.1-1,3.2-0.8
		c2.1,0.5,3.7,2.9,4.7,4.6c1-1.7,2.6-4.1,4.7-4.6c1.1-0.3,2.3,0,3.2,0.8C28.5,12.8,29.3,14.9,28.9,16.9z"/>
</g>
</svg>
