<?xml version="1.0" encoding="utf-8"?>
<!-- Generator: Adobe Illustrator 22.1.0, SVG Export Plug-In . SVG Version: 6.00 Build 0)  -->
<svg version="1.1" id="Layer_1" xmlns="http://www.w3.org/2000/svg" xmlns:xlink="http://www.w3.org/1999/xlink" x="0px" y="0px"
	 viewBox="0 0 38 38" style="enable-background:new 0 0 38 38;" xml:space="preserve">
<style type="text/css">
	.st0{fill:#F86849;}
</style>
<title>MessagesIcon</title>
<desc>Created with Sketch.</desc>
<path id="Shape" class="st0" d="M19,0C8.5,0,0.1,8.5,0.1,19s8.5,18.9,19,18.9S38,29.4,38,19c0-5-2-9.9-5.6-13.4C28.9,2,24,0,19,0
	 M19,1.9c9.4,0,17,7.7,17,17c0,9.4-7.6,17-17,17s-17-7.6-17-17C2,9.5,9.6,1.9,19,1.9"/>
<g>
	<polygon class="st0" points="24.5,14.4 13.5,14.4 19,18.8 	"/>
	<path class="st0" d="M29.6,8.3C26.8,5.5,23,4,19,4C12.9,4,7.4,7.6,5.1,13.3c-2.3,5.6-1,12.1,3.3,16.4c4.3,4.3,10.8,5.6,16.4,3.2
		S34.1,25,34,19C34,15,32.4,11.2,29.6,8.3z M28.2,25.5H9.8V12.4h18.5V25.5z"/>
	<polygon class="st0" points="26.3,15.5 19,21.4 11.7,15.5 11.7,23.5 26.3,23.5 	"/>
</g>
</svg>
