<?xml version="1.0" encoding="utf-8"?>
<!-- Generator: Adobe Illustrator 22.1.0, SVG Export Plug-In . SVG Version: 6.00 Build 0)  -->
<svg version="1.1" id="Layer_1" xmlns="http://www.w3.org/2000/svg" xmlns:xlink="http://www.w3.org/1999/xlink" x="0px" y="0px"
	 viewBox="0 0 26 26" style="enable-background:new 0 0 26 26;" xml:space="preserve">
<style type="text/css">
	.st0{fill:#FFFFFF;}
</style>
<title>MessagesIcon</title>
<desc>Created with Sketch.</desc>
<g id="Blog-Page">
	<g id="Home-Mobile-Nav" transform="translate(-22.000000, -207.000000)">
		<g id="MessagesIcon" transform="translate(22.000000, 207.000000)">
			<path id="Shape" class="st0" d="M13,0C5.8,0,0.1,5.8,0.1,13s5.8,13,13,12.9c7.2,0,13-5.8,13-13c0-3.4-1.4-6.7-3.8-9.2
				S16.4,0,13,0 M13,1.3c6.4,0,11.6,5.2,11.6,11.7c0,6.4-5.2,11.6-11.7,11.6C6.5,24.6,1.3,19.4,1.3,13C1.3,6.5,6.6,1.3,13,1.3"/>
			<g>
				<polygon class="st0" points="16.7,9.9 9.3,9.9 13,12.9 				"/>
				<polygon class="st0" points="18,10.6 13,14.6 8,10.6 8,16.1 18,16.1 				"/>
				<path class="st0" d="M20.3,5.7c-1.9-1.9-4.5-3-7.3-3c-4.2,0-7.9,2.5-9.5,6.4c-1.6,3.8-0.7,8.3,2.2,11.2c3,2.9,7.4,3.8,11.2,2.2
					c3.8-1.6,6.3-5.4,6.3-9.5C23.3,10.2,22.2,7.6,20.3,5.7z M19.3,17.4H6.7V8.5h12.6V17.4z"/>
			</g>
		</g>
	</g>
</g>
</svg>
