<?xml version="1.0" encoding="UTF-8"?>
<svg width="38px" height="38px" viewBox="0 0 38 38" version="1.1" xmlns="http://www.w3.org/2000/svg" xmlns:xlink="http://www.w3.org/1999/xlink">
    <!-- Generator: Sketch 49.3 (51167) - http://www.bohemiancoding.com/sketch -->
    <title>Mobile</title>
    <desc>Created with Sketch.</desc>
    <defs></defs>
    <g id="Blog-Page" stroke="none" stroke-width="1" fill="none" fill-rule="evenodd">
        <g id="Matchmaker-benefits-page-alternate" transform="translate(-822.000000, -1657.000000)" fill-rule="nonzero">
            <g id="Mobile" transform="translate(822.000000, 1657.000000)">
                <g id="Layer_2-2" fill="#FFFFFF">
                    <g id="Layer_1-2-2">
                        <path d="M18.916875,0 C8.46937342,-6.39724968e-16 1.27944994e-15,8.46937342 0,18.916875 C-1.27944994e-15,29.3643766 8.46937342,37.83375 18.916875,37.83375 C29.3643766,37.83375 37.83375,29.3643766 37.83375,18.916875 C37.8348,13.9001718 35.8426583,9.08858051 32.2956846,5.54086445 C28.7487109,1.99314839 23.9375366,-1.09874303e-07 18.9208333,0 M18.9208333,1.91979167 C28.3053615,1.92197767 35.911457,9.5310266 35.9099998,18.9155549 C35.9085425,28.3000833 28.3000843,35.9067697 18.9155559,35.9060412 C9.53102743,35.9053127 1.92375025,28.2974451 1.92375,18.9129167 C1.93900529,9.53419909 9.53815743,1.93504696 18.916875,1.91979167" id="Shape"></path>
                        <path d="M33.879375,18.9129167 C33.8837461,27.1764755 27.1883519,33.8789573 18.9247931,33.8833291 C10.6612342,33.887701 3.95875183,27.1923075 3.95437919,18.9287486 C3.95000655,10.6651897 10.6453995,3.96270674 18.9089583,3.95833333 C27.1700687,3.96051708 33.8670888,10.6557655 33.8714583,18.916875" id="Shape"></path>
                    </g>
                </g>
                <path d="M24.6604167,15.6354167 L24.6604167,14.8120833 L23.0216667,14.8120833 L23.0216667,12.3539583 L13.1772917,12.3539583 L13.1772917,23.833125 L17.278125,23.833125 L17.278125,27.1145833 L19.7402083,27.1145833 C19.304535,27.1145833 18.8867057,26.9415128 18.5786381,26.6334452 C18.2705706,26.3253776 18.0975,25.9075483 18.0975,25.471875 L18.0975,17.2741667 C18.0974987,16.8388564 18.2706955,16.421433 18.5788774,16.1139937 C18.8870593,15.8065544 19.3048994,15.6343652 19.7402083,15.6354167 L24.6604167,15.6354167 Z M19.9460417,27.1145833 L13.1772917,27.1145833 C12.7416183,27.1145833 12.323789,26.9415128 12.0157215,26.6334452 C11.7076539,26.3253776 11.5345833,25.9075483 11.5345833,25.471875 L11.5345833,12.3539583 C11.5389157,11.4485162 12.2718495,10.7155823 13.1772917,10.71125 L23.0216667,10.71125 C23.4569769,10.7112487 23.8744004,10.8844455 24.1818396,11.1926274 C24.4892789,11.5008093 24.6614681,11.9186494 24.6604167,12.3539583 L24.6604167,15.6354167 C25.0957256,15.6343652 25.5135657,15.8065544 25.8217476,16.1139937 C26.1299295,16.421433 26.3031263,16.8388564 26.303125,17.2741667 L26.303125,25.4758333 C26.303125,26.3830761 25.5676594,27.1185417 24.6604167,27.1185417 L19.9460417,27.1145833 Z M19.7402083,17.2702083 L19.7402083,23.8370833 L24.6604167,23.8370833 L24.6604167,17.2741667 L19.7402083,17.2702083 Z M22.1983333,26.2952083 C22.5317,26.2952045 22.8321646,26.0941748 22.9593655,25.7860299 C23.0865664,25.4778851 23.015397,25.1234464 22.7791039,24.8882893 C22.5428107,24.6531321 22.1880331,24.5836717 21.8805049,24.7123561 C21.5729766,24.8410406 21.3733973,25.1424706 21.375,25.4758333 C21.375,25.9305478 21.7436189,26.2991667 22.1983333,26.2991667 L22.1983333,26.2952083 Z" id="Shape" fill="#000000"></path>
            </g>
        </g>
    </g>
</svg>