<?xml version="1.0" encoding="UTF-8"?>
<svg width="38px" height="38px" viewBox="0 0 38 38" version="1.1" xmlns="http://www.w3.org/2000/svg" xmlns:xlink="http://www.w3.org/1999/xlink">
    <!-- Generator: Sketch 49.3 (51167) - http://www.bohemiancoding.com/sketch -->
    <title>AddNotes</title>
    <desc>Created with Sketch.</desc>
    <defs></defs>
    <g id="Blog-Page" stroke="none" stroke-width="1" fill="none" fill-rule="evenodd">
        <g id="Matchmaker-benefits-page-alternate" transform="translate(-136.000000, -1626.000000)" fill-rule="nonzero">
            <g id="AddNotes" transform="translate(136.000000, 1626.000000)">
                <g id="Layer_2-2" fill="#FFFFFF">
                    <g id="Layer_1-2-2">
                        <path d="M18.916875,0 C8.46937342,-6.39724968e-16 1.27944994e-15,8.46937342 0,18.916875 C-1.27944994e-15,29.3643766 8.46937342,37.83375 18.916875,37.83375 C29.3643766,37.83375 37.83375,29.3643766 37.83375,18.916875 C37.8348,13.9001718 35.8426583,9.08858051 32.2956846,5.54086445 C28.7487109,1.99314839 23.9375366,-1.09874303e-07 18.9208333,0 M18.9208333,1.91979167 C28.3053615,1.92197767 35.911457,9.5310266 35.9099998,18.9155549 C35.9085425,28.3000833 28.3000843,35.9067697 18.9155559,35.9060412 C9.53102743,35.9053127 1.92375025,28.2974451 1.92375,18.9129167 C1.93900529,9.53419909 9.53815743,1.93504696 18.916875,1.91979167" id="Shape"></path>
                        <path d="M33.879375,18.9129167 C33.8837461,27.1764755 27.1883519,33.8789573 18.9247931,33.8833291 C10.6612342,33.887701 3.95875183,27.1923075 3.95437919,18.9287486 C3.95000655,10.6651897 10.6453995,3.96270674 18.9089583,3.95833333 C27.1700687,3.96051708 33.8670888,10.6557655 33.8714583,18.916875" id="Shape"></path>
                    </g>
                </g>
                <path d="M20.6902083,14.06 L23.77375,17.1435417 L14.27375,26.6435417 L11.21,26.6435417 L11.21,23.5402083 L20.6902083,14.06 Z M21.7708333,12.979375 L23.5441667,11.2060417 L26.6277083,14.2895833 L24.854375,16.0629167 L21.7708333,12.979375 Z" id="Shape" fill="#000000"></path>
            </g>
        </g>
    </g>
</svg>