<?xml version="1.0" encoding="utf-8"?>
<!-- Generator: Adobe Illustrator 22.1.0, SVG Export Plug-In . SVG Version: 6.00 Build 0)  -->
<svg version="1.1" id="Layer_1" xmlns="http://www.w3.org/2000/svg" xmlns:xlink="http://www.w3.org/1999/xlink" x="0px" y="0px"
	 viewBox="0 0 38 38" style="enable-background:new 0 0 38 38;" xml:space="preserve">
<style type="text/css">
	.st0{fill:#F86849;}
</style>
<title>Personality</title>
<desc>Created with Sketch.</desc>
<path id="Shape" class="st0" d="M19,0C8.5,0,0,8.5,0,19s8.5,19,19,19s19-8.5,19-19c0-5-2-9.9-5.6-13.4S24,0,19,0 M19,1.9
	c9.4,0,17.1,7.6,17.1,17.1S28.4,36.1,19,36.1S1.9,28.4,1.9,19C1.9,9.6,9.6,1.9,19,1.9"/>
<g>
	<path class="st0" d="M29.6,8.4C26.8,5.5,23,4,19,4C10.7,4,4,10.7,4,19s6.7,15,15,15s15-6.7,15-15C34,15,32.5,11.2,29.6,8.4z
		 M23.1,28.8c-4,1.6-8.5,0.7-11.6-2.3s-4-7.6-2.3-11.6c1.6-4,5.5-6.6,9.8-6.6c5.9,0,10.6,4.8,10.6,10.6C29.6,23.3,27,27.2,23.1,28.8
		z"/>
	<path class="st0" d="M19,10.3c-4.8,0-8.7,3.9-8.7,8.7s3.9,8.7,8.7,8.7s8.7-3.9,8.7-8.7S23.8,10.3,19,10.3z M20.4,24.2h-2.8v-7.1
		h2.8V24.2z M19,16.2c-0.6,0-1.1-0.4-1.4-0.9c-0.2-0.5-0.1-1.2,0.3-1.6c0.4-0.4,1-0.5,1.6-0.3c0.5,0.2,0.9,0.8,0.9,1.4h0
		C20.5,15.5,19.8,16.2,19,16.2z"/>
</g>
</svg>
