<?xml version="1.0" encoding="utf-8"?>
<!-- Generator: Adobe Illustrator 22.1.0, SVG Export Plug-In . SVG Version: 6.00 Build 0)  -->
<svg version="1.1" id="Layer_1" xmlns="http://www.w3.org/2000/svg" xmlns:xlink="http://www.w3.org/1999/xlink" x="0px" y="0px"
	 viewBox="0 0 26 26" style="enable-background:new 0 0 26 26;" xml:space="preserve">
<style type="text/css">
	.st0{fill:#FFFFFF;}
</style>
<title>MyProfile</title>
<desc>Created with Sketch.</desc>
<g>
	<path id="Shape" class="st0" d="M13,0.1c-5.2,0-9.9,3.2-11.8,8S0.3,18.5,3.9,22.2s9.2,4.8,14,2.8s7.9-6.7,7.9-12
		c0-3.4-1.3-6.7-3.8-9.2S16.4,0.1,13,0.1 M13,1.4c6.4,0,11.5,5.2,11.5,11.6S19.4,24.6,13,24.6S1.5,19.4,1.5,13
		C1.5,6.6,6.6,1.4,13,1.4"/>
	<g>
		<path class="st0" d="M13,2.8c-4.1,0-7.8,2.5-9.4,6.3s-0.7,8.2,2.2,11.2c2.9,2.9,7.3,3.8,11,2.2c3.8-1.6,6.3-5.3,6.3-9.5
			C23.1,7.3,18.6,2.8,13,2.8z M10.4,11.6c0-1.4,1.1-2.5,2.5-2.5c1.4,0,2.5,1.1,2.5,2.5v1c0,1.4-1.1,2.5-2.5,2.5
			c-1.4,0-2.5-1.1-2.5-2.5V11.6z M17.9,19.1h-10v-1.7c1.5-0.9,3.2-1.3,5-1.3c1.8,0,3.5,0.5,5,1.3V19.1z"/>
		<polygon class="st0" points="23.1,13 23.1,13 23.1,13 		"/>
	</g>
</g>
</svg>
