<?xml version="1.0" encoding="UTF-8"?>
<svg width="46px" height="46px" viewBox="0 0 46 46" version="1.1" xmlns="http://www.w3.org/2000/svg" xmlns:xlink="http://www.w3.org/1999/xlink">
    <!-- Generator: Sketch 49.3 (51167) - http://www.bohemiancoding.com/sketch -->
    <title>Shape</title>
    <desc>Created with Sketch.</desc>
    <defs></defs>
    <g id="Blog-Page" stroke="none" stroke-width="1" fill="none" fill-rule="evenodd">
        <g id="Profile-page-not-complete" transform="translate(-478.000000, -624.000000)" fill="#BAB6BD" fill-rule="nonzero">
            <g id="mood-sad-outline" transform="translate(478.000000, 624.000000)">
                <path d="M23,46 C10.2974508,46 1.55561363e-15,35.7025492 0,23 C-1.55561363e-15,10.2974508 10.2974508,2.33342044e-15 23,0 C35.7025492,7.77806814e-16 46,10.2974508 46,23 C46,35.7025492 35.7025492,46 23,46 Z M23,41.4 C33.1620394,41.4 41.4,33.1620394 41.4,23 C41.4,12.8379606 33.1620394,4.6 23,4.6 C12.8379606,4.6 4.6,12.8379606 4.6,23 C4.6,33.1620394 12.8379606,41.4 23,41.4 Z M14.95,20.7 C13.0446176,20.7 11.5,19.1553824 11.5,17.25 C11.5,15.3446176 13.0446176,13.8 14.95,13.8 C16.8553824,13.8 18.4,15.3446176 18.4,17.25 C18.4,19.1553824 16.8553824,20.7 14.95,20.7 Z M31.05,20.7 C29.1446176,20.7 27.6,19.1553824 27.6,17.25 C27.6,15.3446176 29.1446176,13.8 31.05,13.8 C32.9553824,13.8 34.5,15.3446176 34.5,17.25 C34.5,19.1553824 32.9553824,20.7 31.05,20.7 Z M36.018,34.5 L9.982,34.5 C11.9253573,28.9756605 17.1438098,25.2794843 23,25.2794843 C28.8561902,25.2794843 34.0746427,28.9756605 36.018,34.5 Z" id="Shape"></path>
            </g>
        </g>
    </g>
</svg>