<?xml version="1.0" encoding="UTF-8"?>
<svg width="38px" height="38px" viewBox="0 0 38 38" version="1.1" xmlns="http://www.w3.org/2000/svg" xmlns:xlink="http://www.w3.org/1999/xlink">
    <!-- Generator: Sketch 49.3 (51167) - http://www.bohemiancoding.com/sketch -->
    <title>SearchInvert</title>
    <desc>Created with Sketch.</desc>
    <defs></defs>
    <g id="Blog-Page" stroke="none" stroke-width="1" fill="none" fill-rule="evenodd">
        <g id="Matchmaker-benefits-page-alternate" transform="translate(-819.000000, -1292.000000)" fill-rule="nonzero">
            <g id="SearchInvert" transform="translate(819.000000, 1292.000000)">
                <path d="M19,0 C8.50658975,-6.42536064e-16 1.28507213e-15,8.50658975 0,19 C-1.28507213e-15,29.4934102 8.50658975,38 19,38 C29.4934102,38 38,29.4934102 38,19 C38,13.9608867 35.99822,9.12816235 32.4350288,5.56497116 C28.8718377,2.00177997 24.0391133,3.08556699e-16 19,0 M19,1.93166667 C28.4265802,1.93166667 36.0683333,9.57341979 36.0683333,19 C36.0683333,28.4265802 28.4265802,36.0683333 19,36.0683333 C9.57341979,36.0683333 1.93166667,28.4265802 1.93166667,19 C1.93385182,9.57432507 9.57432507,1.93385182 19,1.93166667" id="Shape" fill="#FFFFFF"></path>
                <path d="M34.0416667,19 C34.0416667,27.3072831 27.3072831,34.0416667 19,34.0416667 C10.6927169,34.0416667 3.95833333,27.3072831 3.95833333,19 C3.95833333,10.6927169 10.6927169,3.95833333 19,3.95833333 C22.989298,3.95833333 26.8152048,5.54307581 29.6360645,8.3639355 C32.4569242,11.1847952 34.0416667,15.010702 34.0416667,19" id="Shape" fill="#FFFFFF"></path>
                <path d="M16.6804167,22.194375 C14.0500699,22.1905983 11.7886209,20.3294345 11.278898,17.748946 C10.7691752,15.1684575 12.1531187,12.5872207 14.5844761,11.5836077 C17.0158335,10.5799946 19.8175564,11.4334766 21.2764502,13.6221674 C22.7353439,15.8108581 22.4451573,18.7252834 20.5833333,20.5833333 C19.5476472,21.6169201 18.1436128,22.1964759 16.6804167,22.194375" id="Shape" fill="#FFFFFF"></path>
                <path d="M16.6804167,10.2045833 C13.5931978,10.2060196 10.9368088,12.3878145 10.3355004,15.415908 C9.73419191,18.4440015 11.3553973,21.4752264 14.2078295,22.6561382 C17.0602617,23.8370501 20.3496659,22.8388261 22.0647339,20.2718309 C23.7798018,17.7048358 23.4429758,14.2838447 21.2602083,12.100625 C20.0454736,10.8862541 18.3980537,10.2042194 16.6804167,10.2045833 M16.6804167,12.13625 C18.8500143,12.1439339 20.7121064,13.6830151 21.1280646,15.8123792 C21.5440229,17.9417434 20.3980175,20.0684379 18.3908057,20.8920359 C16.3835938,21.7156339 14.074113,21.0067924 12.87456,19.1989524 C11.6750069,17.3911124 11.9194147,14.9876934 13.4583333,13.4583333 C14.3141561,12.6072118 15.4734294,12.1315395 16.6804167,12.13625" id="Shape" fill="#1C0E26"></path>
                <rect id="Rectangle-path" fill="#1C0E26" transform="translate(23.627637, 23.625892) rotate(-45.000000) translate(-23.627637, -23.625892) " x="22.6380535" y="19.5349547" width="1.97916667" height="8.181875"></rect>
                <rect id="Rectangle-path" fill="#1C0E26" transform="translate(24.846532, 24.846458) rotate(-45.000000) translate(-24.846532, -24.846458) " x="23.0652817" y="21.410625" width="3.5625" height="6.87166667"></rect>
            </g>
        </g>
    </g>
</svg>