<?xml version="1.0" encoding="UTF-8"?>
<svg width="38px" height="38px" viewBox="0 0 38 38" version="1.1" xmlns="http://www.w3.org/2000/svg" xmlns:xlink="http://www.w3.org/1999/xlink">
    <!-- Generator: Sketch 49.3 (51167) - http://www.bohemiancoding.com/sketch -->
    <title>Secure</title>
    <desc>Created with Sketch.</desc>
    <defs></defs>
    <g id="Blog-Page" stroke="none" stroke-width="1" fill="none" fill-rule="evenodd">
        <g id="Matchmaker-benefits-page-alternate" transform="translate(-139.000000, -1977.000000)" fill-rule="nonzero">
            <g id="Secure" transform="translate(139.000000, 1977.000000)">
                <g id="Layer_2-2" fill="#FFFFFF">
                    <g id="Layer_1-2-2">
                        <path d="M18.916875,0 C8.46937342,-6.39724968e-16 1.27944994e-15,8.46937342 0,18.916875 C-1.27944994e-15,29.3643766 8.46937342,37.83375 18.916875,37.83375 C29.3643766,37.83375 37.83375,29.3643766 37.83375,18.916875 C37.8348,13.9001718 35.8426583,9.08858051 32.2956846,5.54086445 C28.7487109,1.99314839 23.9375366,-1.09874303e-07 18.9208333,0 M18.9208333,1.91979167 C28.3053615,1.92197767 35.911457,9.5310266 35.9099998,18.9155549 C35.9085425,28.3000833 28.3000843,35.9067697 18.9155559,35.9060412 C9.53102743,35.9053127 1.92375025,28.2974451 1.92375,18.9129167 C1.93900529,9.53419909 9.53815743,1.93504696 18.916875,1.91979167" id="Shape"></path>
                        <path d="M33.879375,18.9129167 C33.8837461,27.1764755 27.1883519,33.8789573 18.9247931,33.8833291 C10.6612342,33.887701 3.95875183,27.1923075 3.95437919,18.9287486 C3.95000655,10.6651897 10.6453995,3.96270674 18.9089583,3.95833333 C27.1700687,3.96051708 33.8670888,10.6557655 33.8714583,18.916875" id="Shape"></path>
                    </g>
                </g>
                <path d="M13.6047917,17.1435417 L13.6047917,15.3702083 C13.6833577,12.4918044 16.0393782,10.1992141 18.9188542,10.1992141 C21.7983301,10.1992141 24.1543506,12.4918044 24.2329167,15.3702083 L24.2329167,17.1435417 L25.1195833,17.1435417 C25.5888508,17.1435417 26.0388982,17.3299574 26.3707204,17.6617796 C26.7025426,17.9936018 26.8889583,18.4436492 26.8889583,18.9129167 L26.8889583,25.9983333 C26.8900097,26.4682862 26.7040582,26.9193512 26.372122,27.25203 C26.0401858,27.5847088 25.5895374,27.7716678 25.1195833,27.7716667 L12.718125,27.7716667 C12.2481709,27.7716678 11.7975226,27.5847088 11.4655864,27.25203 C11.1336502,26.9193512 10.9476986,26.4682862 10.94875,25.9983333 L10.94875,18.9129167 C10.9509268,17.9366209 11.7418293,17.1457185 12.718125,17.1435417 L13.6047917,17.1435417 Z M18.0341667,23.1047917 L18.0341667,25.115625 L19.7916667,25.115625 L19.7916667,23.1047917 C20.4852051,22.7043771 20.823334,21.8880616 20.6160642,21.11452 C20.4087943,20.3409784 19.7078083,19.803093 18.9069792,19.803093 C18.10615,19.803093 17.405164,20.3409784 17.1978942,21.11452 C16.9906243,21.8880616 17.3287533,22.7043771 18.0222917,23.1047917 L18.0341667,23.1047917 Z M16.2608333,15.3702083 L16.2608333,17.1435417 L21.576875,17.1435417 L21.576875,15.3702083 C21.5217542,13.9421109 20.348015,12.812801 18.9188542,12.812801 C17.4896934,12.812801 16.3159542,13.9421109 16.2608333,15.3702083 Z" id="Shape" fill="#000000"></path>
            </g>
        </g>
    </g>
</svg>