<?xml version="1.0" encoding="utf-8"?>
<!-- Generator: Adobe Illustrator 22.1.0, SVG Export Plug-In . SVG Version: 6.00 Build 0)  -->
<svg version="1.1" id="Layer_1" xmlns="http://www.w3.org/2000/svg" xmlns:xlink="http://www.w3.org/1999/xlink" x="0px" y="0px"
	 viewBox="0 0 38 38" style="enable-background:new 0 0 38 38;" xml:space="preserve">
<style type="text/css">
	.st0{fill:#F86849;}
</style>
<title>SearchIcon</title>
<desc>Created with Sketch.</desc>
<path id="Shape" class="st0" d="M19,0C8.5,0,0,8.5,0,19s8.5,19,19,19s19-8.5,19-19c0-5-2-9.9-5.6-13.4S24,0,19,0 M19,1.9
	c9.4,0,17.1,7.6,17.1,17.1S28.4,36.1,19,36.1S1.9,28.4,1.9,19C1.9,9.6,9.6,1.9,19,1.9"/>
<g>
	<path class="st0" d="M16.7,12.1L16.7,12.1c-1.2,0-2.4,0.5-3.2,1.3c-1.5,1.5-1.8,3.9-0.6,5.7c1.2,1.8,3.5,2.5,5.5,1.7s3.2-3,2.7-5.1
		C20.7,13.7,18.9,12.1,16.7,12.1z"/>
	<path class="st0" d="M29.6,8.4C26.8,5.5,23,4,19,4C10.7,4,4,10.7,4,19s6.7,15,15,15s15-6.7,15-15C34,15,32.5,11.2,29.6,8.4z
		 M26,28.5l-4.9-4.9l0.6-0.6l-1.2-1.2c-1.8,1.3-4.2,1.6-6.3,0.8c-2.9-1.2-4.5-4.2-3.9-7.2c0.6-3,3.3-5.2,6.4-5.2
		c1.7,0,3.4,0.7,4.6,1.9c2.2,2.2,2.5,5.6,0.8,8.2c-0.1,0.1-0.1,0.1-0.2,0.2l1.2,1.2l0.6-0.6l4.9,4.9L26,28.5z"/>
</g>
</svg>
