<?xml version="1.0" encoding="UTF-8"?>
<svg width="67px" height="67px" viewBox="0 0 67 67" version="1.1" xmlns="http://www.w3.org/2000/svg" xmlns:xlink="http://www.w3.org/1999/xlink">
    <!-- Generator: Sketch 49.3 (51167) - http://www.bohemiancoding.com/sketch -->
    <title>121</title>
    <desc>Created with Sketch.</desc>
    <defs></defs>
    <g id="Blog-Page" stroke="none" stroke-width="1" fill="none" fill-rule="evenodd">
        <g id="Homepage-with-Register" transform="translate(-1076.000000, -1738.000000)" fill="#FFFFFF" fill-rule="nonzero">
            <g id="121" transform="translate(1076.000000, 1738.000000)">
                <path d="M33.5,0 C14.9984609,-1.13289253e-15 2.26578507e-15,14.9984609 0,33.5 C-2.26578507e-15,52.0015391 14.9984609,67 33.5,67 C52.0015391,67 67,52.0015391 67,33.5 C67,24.6152476 63.4705458,16.0943915 57.1880772,9.81192283 C50.9056085,3.52945415 42.3847524,5.4403418e-16 33.5,0 M33.5,3.40583333 C50.1205493,3.40583333 63.5941667,16.8794507 63.5941667,33.5 C63.5941667,50.1205493 50.1205493,63.5941667 33.5,63.5941667 C16.8794507,63.5941667 3.40583333,50.1205493 3.40583333,33.5 C3.42122396,16.8858299 16.8858299,3.42122396 33.5,3.40583333" id="Shape"></path>
                <path d="M33.5,6.97916667 C18.8529482,6.97916667 6.97916667,18.8529482 6.97916667,33.5 C6.97916667,48.1470518 18.8529482,60.0208333 33.5,60.0208333 C48.1470518,60.0208333 60.0208333,48.1470518 60.0208333,33.5 C60.0208333,26.4662377 57.2266821,19.7205599 52.2530611,14.7469389 C47.2794401,9.77331787 40.5337623,6.97916667 33.5,6.97916667 Z M19.3602083,39.2019792 L16.75,39.2019792 L16.75,31.1201042 L15.5844792,31.9296875 L14.3282292,29.9545833 L17.294375,27.8608333 L19.3532292,27.8608333 L19.3602083,39.2019792 Z M26.9046875,35.7123958 L21.4260417,35.7123958 L21.4260417,33.5488542 L26.9046875,33.5488542 L26.9046875,35.7123958 Z M37.0454167,36.7034375 L37.0454167,39.2159375 L29.2357292,39.2159375 L29.2357292,37.4083333 L33.3673958,33.0952083 C33.5436916,32.9108103 33.7047404,32.7124168 33.8489583,32.5019792 C33.9884121,32.326321 34.10562,32.1341 34.1979167,31.9296875 C34.2963601,31.734773 34.3488819,31.5199112 34.3514583,31.3015625 C34.3692979,30.9851704 34.2527085,30.6759549 34.0304167,30.4501042 C33.7729308,30.2250738 33.4363261,30.1120349 33.0952083,30.1360417 C32.711551,30.1006345 32.3315911,30.2347397 32.0551556,30.5031238 C31.77872,30.7715078 31.6334455,31.1473389 31.6575,31.531875 L29.145,31.40625 C29.1469835,30.9273041 29.2417876,30.4532835 29.4241667,30.0104167 C29.6084465,29.5823571 29.8766034,29.1955468 30.2128125,28.8728125 C30.5719785,28.5405381 30.9945111,28.28417 31.4551042,28.1190625 C31.981005,27.9305043 32.5365918,27.8383005 33.0952083,27.846875 C33.6635044,27.8387633 34.2293028,27.923633 34.7702083,28.098125 C35.2271144,28.2446515 35.6496775,28.4820465 36.0125,28.7960417 C36.3494498,29.0959656 36.6142734,29.4681501 36.7871875,29.8847917 C36.963343,30.3166235 37.0511491,30.7793853 37.0454167,31.2457292 C37.0471576,31.6710949 36.9516715,32.0912337 36.76625,32.4740625 C36.5970724,32.836103 36.3912774,33.1798741 36.1520833,33.5 C35.8835817,33.8513216 35.5821059,34.1761676 35.2517708,34.4701042 L33.0952083,36.7173958 L37.0454167,36.7034375 Z M44.8551042,35.7123958 L39.3834375,35.7123958 L39.3834375,33.5488542 L44.8551042,33.5488542 L44.8551042,35.7123958 Z M51.3178125,39.2019792 L48.7145833,39.2019792 L48.7145833,31.1201042 L47.5490625,31.9296875 L46.2928125,29.9545833 L49.2589583,27.8608333 L51.3527083,27.8608333 L51.3178125,39.2019792 Z" id="Shape"></path>
            </g>
        </g>
    </g>
</svg>