<?xml version="1.0" encoding="utf-8"?>
<!-- Generator: Adobe Illustrator 22.1.0, SVG Export Plug-In . SVG Version: 6.00 Build 0)  -->
<svg version="1.1" id="Layer_1" xmlns="http://www.w3.org/2000/svg" xmlns:xlink="http://www.w3.org/1999/xlink" x="0px" y="0px"
	 viewBox="0 0 26 26" style="enable-background:new 0 0 26 26;" xml:space="preserve">
<style type="text/css">
	.st0{fill:#FFFFFF;}
</style>
<title>SearchInvert</title>
<desc>Created with Sketch.</desc>
<g id="Blog-Page">
	<g id="Home-Mobile-Nav" transform="translate(-22.000000, -171.000000)">
		<g id="SearchInvert" transform="translate(22.000000, 171.000000)">
			<path id="Shape" class="st0" d="M13,0C5.8,0,0,5.8,0,13s5.8,13,13,13s13-5.8,13-13c0-3.4-1.4-6.8-3.8-9.2S16.4,0,13,0 M13,1.3
				c6.4,0,11.7,5.2,11.7,11.7S19.4,24.7,13,24.7S1.3,19.4,1.3,13C1.3,6.6,6.6,1.3,13,1.3"/>
			<g>
				<path class="st0" d="M20.3,5.7c-1.9-1.9-4.5-3-7.3-3C7.3,2.7,2.7,7.3,2.7,13S7.3,23.3,13,23.3c5.7,0,10.3-4.6,10.3-10.3
					C23.3,10.3,22.2,7.7,20.3,5.7z M17.8,19.5l-3.3-3.3l0.4-0.4L14,15c-1.2,0.9-2.8,1.1-4.3,0.5c-2-0.8-3.1-2.9-2.6-5
					C7.5,8.5,9.3,7,11.4,7c1.2,0,2.3,0.5,3.1,1.3c1.5,1.5,1.7,3.8,0.6,5.6c0,0.1-0.1,0.1-0.1,0.1l0.8,0.8l0.4-0.4l3.3,3.3L17.8,19.5
					z"/>
				<path class="st0" d="M11.4,8.3c-0.8,0-1.6,0.3-2.2,0.9c-1.1,1-1.2,2.7-0.4,3.9s2.4,1.7,3.8,1.2s2.2-2,1.9-3.5
					C14.2,9.4,12.9,8.3,11.4,8.3z"/>
			</g>
		</g>
	</g>
</g>
</svg>
