<?xml version="1.0" encoding="utf-8"?>
<!-- Generator: Adobe Illustrator 22.1.0, SVG Export Plug-In . SVG Version: 6.00 Build 0)  -->
<svg version="1.1" id="Layer_1" xmlns="http://www.w3.org/2000/svg" xmlns:xlink="http://www.w3.org/1999/xlink" x="0px" y="0px"
	 viewBox="0 0 26 26" style="enable-background:new 0 0 26 26;" xml:space="preserve">
<style type="text/css">
	.st0{fill:#FFFFFF;}
</style>
<title>FavouriteIcon</title>
<desc>Created with Sketch.</desc>
<path id="Shape" class="st0" d="M13.1,0C7.9,0,3.2,3.2,1.2,8S0.4,18.4,4,22.1s9.2,4.8,14,2.8s7.9-6.7,7.9-12c0-3.4-1.3-6.7-3.8-9.2
	S16.5,0,13.1,0 M13.1,1.3c6.4,0,11.5,5.2,11.5,11.6s-5.2,11.6-11.5,11.6S1.6,19.4,1.6,12.9C1.6,6.5,6.7,1.3,13.1,1.3"/>
<g>
	<polygon class="st0" points="17.2,12.1 15,11.8 14.4,11.7 14.1,11 13.1,9 12.1,11 11.8,11.7 11.1,11.8 8.9,12.1 10.5,13.6 11,14.1 
		10.9,14.8 10.5,17 12.5,16 13.1,15.7 13.7,16 15.7,17 15.3,14.8 15.2,14.1 15.6,13.7 	"/>
	<path class="st0" d="M13.1,2.7C9,2.7,5.3,5.2,3.7,9C2.1,12.9,3,17.3,5.9,20.2c2.9,2.9,7.3,3.8,11,2.2c3.8-1.6,6.3-5.3,6.3-9.5
		C23.2,7.3,18.7,2.7,13.1,2.7z M17.4,19.4l-4.3-2.3l-4.3,2.3l0.8-4.8l-3.5-3.4l4.8-0.7l2.1-4.4l2.1,4.4l4.8,0.7l-3.5,3.4L17.4,19.4z
		"/>
	<polygon class="st0" points="23.2,12.9 23.2,12.9 23.2,12.9 	"/>
</g>
</svg>
