<?xml version="1.0" encoding="UTF-8"?>
<svg width="38px" height="38px" viewBox="0 0 38 38" version="1.1" xmlns="http://www.w3.org/2000/svg" xmlns:xlink="http://www.w3.org/1999/xlink">
    <!-- Generator: Sketch 49.3 (51167) - http://www.bohemiancoding.com/sketch -->
    <title>Storage</title>
    <desc>Created with Sketch.</desc>
    <defs></defs>
    <g id="Blog-Page" stroke="none" stroke-width="1" fill="none" fill-rule="evenodd">
        <g id="Matchmaker-benefits-page-alternate" transform="translate(-139.000000, -1292.000000)" fill-rule="nonzero">
            <g id="Storage" transform="translate(139.000000, 1292.000000)">
                <g id="Layer_2-2" fill="#FFFFFF">
                    <g id="Layer_1-2-2">
                        <path d="M18.916875,0 C8.46937342,-6.39724968e-16 1.27944994e-15,8.46937342 0,18.916875 C-1.27944994e-15,29.3643766 8.46937342,37.83375 18.916875,37.83375 C29.3643766,37.83375 37.83375,29.3643766 37.83375,18.916875 C37.8348,13.9001718 35.8426583,9.08858051 32.2956846,5.54086445 C28.7487109,1.99314839 23.9375366,-1.09874303e-07 18.9208333,0 M18.9208333,1.91979167 C28.3053615,1.92197767 35.911457,9.5310266 35.9099998,18.9155549 C35.9085425,28.3000833 28.3000843,35.9067697 18.9155559,35.9060412 C9.53102743,35.9053127 1.92375025,28.2974451 1.92375,18.9129167 C1.93900529,9.53419909 9.53815743,1.93504696 18.916875,1.91979167" id="Shape"></path>
                        <path d="M33.879375,18.9129167 C33.8837461,27.1764755 27.1883519,33.8789573 18.9247931,33.8833291 C10.6612342,33.887701 3.95875183,27.1923075 3.95437919,18.9287486 C3.95000655,10.6651897 10.6453995,3.96270674 18.9089583,3.95833333 C27.1700687,3.96051708 33.8670888,10.6557655 33.8714583,18.916875" id="Shape"></path>
                    </g>
                </g>
                <path d="M15.710625,14.1035417 L14.9189583,14.1035417 C14.4762676,14.1035417 14.1173958,13.7446699 14.1173958,13.3019792 C14.1173958,12.8592884 14.4762676,12.5004167 14.9189583,12.5004167 L23.75,12.5004167 L23.75,11.70875 C23.75,11.2715246 23.3955588,10.9170833 22.9583333,10.9170833 L14.1075,10.9170833 C13.6841552,10.9117911 13.276325,11.0762669 12.975098,11.373775 C12.673871,11.6712831 12.5043419,12.0770388 12.504375,12.5004167 L12.504375,25.3333333 C12.5173307,26.2100733 13.2306667,26.9146027 14.1075,26.9166667 L23.75,26.9166667 C24.6244509,26.9166667 25.3333333,26.2077842 25.3333333,25.3333333 L25.3333333,14.9070833 C25.3333333,14.4698579 24.9788921,14.1154167 24.5416667,14.1154167 L18.9208333,14.1154167 L18.9208333,20.52 L17.31375,18.9129167 L15.710625,20.52 L15.710625,14.1035417 Z" id="Shape" fill="#000000"></path>
            </g>
        </g>
    </g>
</svg>