<?xml version="1.0" encoding="utf-8"?>
<!-- Generator: Adobe Illustrator 22.1.0, SVG Export Plug-In . SVG Version: 6.00 Build 0)  -->
<svg version="1.1" id="Layer_1" xmlns="http://www.w3.org/2000/svg" xmlns:xlink="http://www.w3.org/1999/xlink" x="0px" y="0px"
	 viewBox="0 0 38 38" style="enable-background:new 0 0 38 38;" xml:space="preserve">
<style type="text/css">
	.st0{fill:#F86849;}
</style>
<title>SummaryIconDark</title>
<desc>Created with Sketch.</desc>
<path id="Shape" class="st0" d="M19,0C8.5,0,0,8.5,0,19s8.5,19,19,19s19-8.5,19-19c0-5-2-9.9-5.6-13.4S24,0,19,0 M19,1.9
	c9.4,0,17.1,7.6,17.1,17.1S28.4,36.1,19,36.1S1.9,28.4,1.9,19C1.9,9.6,9.6,1.9,19,1.9"/>
<path class="st0" d="M29.6,8.4C26.8,5.5,23,4,19,4C10.7,4,4,10.7,4,19s6.7,15,15,15s15-6.7,15-15C34,15,32.5,11.2,29.6,8.4z
	 M11.8,27.2c-1.1,0-2-0.9-2-2c0-1.1,0.9-2,2-2s2,0.9,2,2C13.7,26.3,12.9,27.2,11.8,27.2z M11.8,21c-1.1,0-2-0.9-2-2s0.9-2,2-2
	s2,0.9,2,2S12.9,21,11.8,21z M11.8,14.8c-1.1,0-2-0.9-2-2c0-1.1,0.9-2,2-2s2,0.9,2,2C13.7,13.9,12.9,14.8,11.8,14.8z M28,26.8H15
	v-3.2h13V26.8z M28,20.6H15v-3.2h13V20.6z M28,14.4H15v-3.2h13V14.4z"/>
</svg>
