<?xml version="1.0" encoding="UTF-8"?>
<svg width="17px" height="17px" viewBox="0 0 17 17" version="1.1" xmlns="http://www.w3.org/2000/svg" xmlns:xlink="http://www.w3.org/1999/xlink">
    <!-- Generator: Sketch 49.3 (51167) - http://www.bohemiancoding.com/sketch -->
    <title>Shape</title>
    <desc>Created with Sketch.</desc>
    <defs></defs>
    <g id="Symbols" stroke="none" stroke-width="1" fill="none" fill-rule="evenodd">
        <g id="Event-Card" transform="translate(-19.000000, -399.000000)" fill="#C2C2C2" fill-rule="nonzero">
            <g id="Group">
                <g id="time" transform="translate(19.000000, 399.000000)">
                    <path d="M8.5,17 C3.80557963,17 5.74900688e-16,13.1944204 0,8.5 C-5.74900688e-16,3.80557963 3.80557963,8.62351033e-16 8.5,0 C13.1944204,2.87450344e-16 17,3.80557963 17,8.5 C17,13.1944204 13.1944204,17 8.5,17 Z M8.5,15.3 C12.2555363,15.3 15.3,12.2555363 15.3,8.5 C15.3,4.7444637 12.2555363,1.7 8.5,1.7 C4.7444637,1.7 1.7,4.7444637 1.7,8.5 C1.7,12.2555363 4.7444637,15.3 8.5,15.3 Z M7.65,8.8485 L7.65,3.4 L9.35,3.4 L9.35,8.1515 L12.7075,11.509 L11.509,12.7075 L7.65,8.8485 Z" id="Shape"></path>
                </g>
            </g>
        </g>
    </g>
</svg>