<?xml version="1.0" encoding="UTF-8"?>
<svg width="67px" height="67px" viewBox="0 0 67 67" version="1.1" xmlns="http://www.w3.org/2000/svg" xmlns:xlink="http://www.w3.org/1999/xlink">
    <!-- Generator: Sketch 49.3 (51167) - http://www.bohemiancoding.com/sketch -->
    <title>Events</title>
    <desc>Created with Sketch.</desc>
    <defs></defs>
    <g id="Blog-Page" stroke="none" stroke-width="1" fill="none" fill-rule="evenodd">
        <g id="Homepage-with-Register" transform="translate(-738.000000, -1973.000000)" fill="#FFFFFF" fill-rule="nonzero">
            <g id="Events" transform="translate(738.000000, 1973.000000)">
                <path d="M33.5,0 C14.9984609,-1.13289253e-15 2.26578507e-15,14.9984609 0,33.5 C-2.26578507e-15,52.0015391 14.9984609,67 33.5,67 C52.0015391,67 67,52.0015391 67,33.5 C67,24.6152476 63.4705458,16.0943915 57.1880772,9.81192283 C50.9056085,3.52945415 42.3847524,5.4403418e-16 33.5,0 M33.5,3.40583333 C50.1205493,3.40583333 63.5941667,16.8794507 63.5941667,33.5 C63.5941667,50.1205493 50.1205493,63.5941667 33.5,63.5941667 C16.8794507,63.5941667 3.40583333,50.1205493 3.40583333,33.5 C3.42122396,16.8858299 16.8858299,3.42122396 33.5,3.40583333" id="Shape"></path>
                <path d="M25.5577083,33.5 C25.5581932,36.6366426 23.4416494,39.3783985 20.4070833,40.1720833 L20.4070833,41.4353125 L46.5789583,41.4353125 L46.5789583,40.1651042 C43.5427725,39.3729794 41.4242527,36.6308363 41.4242527,33.4930208 C41.4242527,30.3552054 43.5427725,27.6130622 46.5789583,26.8209375 L46.5789583,25.5577083 L20.4070833,25.5577083 L20.4070833,26.8209375 C23.442733,27.6174383 25.5589172,30.3615958 25.5577083,33.5 Z" id="Shape"></path>
                <path d="M33.5,6.97916667 C18.8529482,6.97916667 6.97916667,18.8529482 6.97916667,33.5 C6.97916667,48.1470518 18.8529482,60.0208333 33.5,60.0208333 C48.1470518,60.0208333 60.0208333,48.1470518 60.0208333,33.5 C60.0208333,26.4662377 57.2266821,19.7205599 52.2530611,14.7469389 C47.2794401,9.77331787 40.5337623,6.97916667 33.5,6.97916667 Z M50.0685417,30.0871875 L48.32375,30.0871875 C46.4427602,30.0871875 44.9179167,31.612031 44.9179167,33.4930208 C44.9179167,35.3740106 46.4427602,36.8988542 48.32375,36.8988542 L50.0685417,36.8988542 L50.0685417,44.9179167 L16.9175,44.9179167 L16.9175,36.8988542 L18.6622917,36.8988542 C20.5432815,36.8988542 22.068125,35.3740106 22.068125,33.4930208 C22.068125,31.612031 20.5432815,30.0871875 18.6622917,30.0871875 L16.9175,30.0871875 L16.9175,22.068125 L50.0685417,22.068125 L50.0685417,30.0871875 Z" id="Shape"></path>
            </g>
        </g>
    </g>
</svg>