<?xml version="1.0" encoding="utf-8"?>
<!-- Generator: Adobe Illustrator 22.1.0, SVG Export Plug-In . SVG Version: 6.00 Build 0)  -->
<svg version="1.1" id="Layer_1" xmlns="http://www.w3.org/2000/svg" xmlns:xlink="http://www.w3.org/1999/xlink" x="0px" y="0px"
	 viewBox="0 0 38 38" style="enable-background:new 0 0 38 38;" xml:space="preserve">
<style type="text/css">
	.st0{fill:#F86849;}
</style>
<title>Profile visitors</title>
<desc>Created with Sketch.</desc>
<g id="Profile-visitors">
	<path id="Shape" class="st0" d="M19,0C8.5,0,0,8.5,0,19s8.5,19,19,19s19-8.5,19-19c0-5-2-9.9-5.6-13.4S24,0,19,0 M19,1.9
		c9.4,0,17.1,7.6,17.1,17.1S28.4,36.1,19,36.1S1.9,28.4,1.9,19C1.9,9.6,9.6,1.9,19,1.9"/>
	<g>
		<path class="st0" d="M29.6,8.4C26.8,5.5,23,4,19,4C10.7,4,4,10.7,4,19s6.7,15,15,15s15-6.7,15-15C34,15,32.5,11.2,29.6,8.4z
			 M19,24.8c-4,0-7.6-2.2-9.4-5.8c1.8-3.5,5.4-5.8,9.4-5.8c4,0,7.6,2.2,9.4,5.8C26.6,22.5,23,24.8,19,24.8z"/>
		<path class="st0" d="M17.5,15.4c-1.4,0.6-2.4,2-2.4,3.6c0,2.1,1.7,3.8,3.8,3.8c1.6,0,3-0.9,3.5-2.4s0.3-3.1-0.8-4.2
			C20.6,15.2,19,14.9,17.5,15.4z M19,20.9c-0.8,0-1.5-0.5-1.8-1.2s-0.1-1.5,0.4-2.1s1.4-0.7,2.1-0.4s1.2,1,1.2,1.8
			C20.9,20.1,20.1,20.9,19,20.9z"/>
	</g>
</g>
</svg>
