<?xml version="1.0" encoding="UTF-8"?>
<svg width="243px" height="71px" viewBox="0 0 243 71" version="1.1" xmlns="http://www.w3.org/2000/svg" xmlns:xlink="http://www.w3.org/1999/xlink">
    <!-- Generator: Sketch 49.3 (51167) - http://www.bohemiancoding.com/sketch -->
    <title>SMLogoOrangeWhite</title>
    <desc>Created with Sketch.</desc>
    <defs></defs>
    <g id="Blog-Page" stroke="none" stroke-width="1" fill="none" fill-rule="evenodd">
        <g id="Homepage-with-Register" transform="translate(-137.000000, -36.000000)" fill-rule="nonzero">
            <g id="Header" transform="translate(0.000000, -94.000000)">
                <g id="SMLogoOrangeWhite" transform="translate(137.000000, 130.000000)">
                    <path d="M35.5,4.14390552 L43.8285174,12.4683523 L44.6833505,13.327256 L57.672744,13.327256 L57.672744,26.3166495 L58.5316477,27.1755533 L66.8560945,35.5 L58.5316477,43.8285174 L57.672744,44.6833505 L57.672744,57.672744 L44.6833505,57.672744 L43.8285174,58.5316477 L35.5,66.8560945 L27.1755533,58.5316477 L26.3166495,57.672744 L13.327256,57.672744 L13.327256,44.6833505 L12.4683523,43.8285174 L4.14390552,35.5 L12.4683523,27.1755533 L13.327256,26.3166495 L13.327256,13.327256 L26.3166495,13.327256 L27.1755533,12.4683523 L35.5,4.14390552 Z M35.5,0 L25.1036005,10.3963995 L10.3963995,10.3963995 L10.3963995,25.1036005 L0,35.5 L10.3963995,45.9004701 L10.3963995,60.6036005 L25.1036005,60.6036005 L35.5,71 L45.9004701,60.6036005 L60.6036005,60.6036005 L60.6036005,45.9004701 L71,35.5 L60.6036005,25.1036005 L60.6036005,10.3963995 L45.9004701,10.3963995 L35.5,0 Z" id="Shape" fill="#F99D47"></path>
                    <polygon id="Shape" fill="#F99D47" points="33 22.6671756 28 17 28 25 30.9403307 25"></polygon>
                    <polygon id="Shape" fill="#F99D47" points="43 17 38 22.6671756 40.0581897 25 43 25"></polygon>
                    <polygon id="Shape" fill="#F99D47" points="30.9151689 46 28 46 28 54 33 48.354135"></polygon>
                    <polygon id="Shape" fill="#F99D47" points="25 43 25 40.074928 22.6508906 38 17 43"></polygon>
                    <rect id="Rectangle-path" fill="#FFFFFF" transform="translate(56.500000, 35.500000) rotate(-45.000000) translate(-56.500000, -35.500000) " x="52" y="31" width="9" height="9"></rect>
                    <polygon id="Shape" fill="#F99D47" points="25 28 17 28 22.6592292 33 25 30.9318996"></polygon>
                    <polygon id="Shape" fill="#F99D47" points="43 46 40.0833333 46 38 48.354135 43 54"></polygon>
                    <rect id="Rectangle-path" fill="#FFFFFF" transform="translate(14.500000, 35.500000) rotate(-45.000000) translate(-14.500000, -35.500000) " x="10" y="31" width="9" height="9"></rect>
                    <rect id="Rectangle-path" fill="#FFFFFF" x="16" y="16" width="9" height="9"></rect>
                    <rect id="Rectangle-path" fill="#FFFFFF" transform="translate(35.500000, 14.500000) rotate(-45.000000) translate(-35.500000, -14.500000) " x="31" y="10" width="9" height="9"></rect>
                    <rect id="Rectangle-path" fill="#FFFFFF" transform="translate(35.500000, 56.500000) rotate(-45.000000) translate(-35.500000, -56.500000) " x="31" y="52" width="9" height="9"></rect>
                    <rect id="Rectangle-path" fill="#FFFFFF" x="46" y="46" width="9" height="9"></rect>
                    <rect id="Rectangle-path" fill="#FFFFFF" x="16" y="46" width="9" height="9"></rect>
                    <polygon id="Shape" fill="#F99D47" points="54 28 46 28 46 30.9318996 48.3378995 33"></polygon>
                    <rect id="Rectangle-path" fill="#FFFFFF" x="46" y="16" width="9" height="9"></rect>
                    <polygon id="Shape" fill="#F99D47" points="48.3462322 38 46 40.074928 46 43 54 43"></polygon>
                    <path d="M43.7575534,32.7697126 L43.7575534,28.201916 L39.205969,28.201916 L35.9878408,25 L32.7697126,28.201916 L28.201916,28.201916 L28.201916,32.7697126 L25,35.9878408 L28.201916,39.205969 L28.201916,43.7575534 L32.7697126,43.7575534 L35.9878408,47 L39.205969,43.7575534 L43.7575534,43.7575534 L43.7575534,39.205969 L47,35.9878408 L43.7575534,32.7697126 Z M41.3257185,34.5530582 C41.0703758,36.1742815 39.9841562,38.9506264 35.9959469,42.2538688 C32.0077377,38.9627856 30.9255711,36.1742815 30.6661754,34.5530582 C30.4778947,33.5456576 30.8427468,32.5144865 31.6226971,31.8496684 C33.9045689,30.0338983 35.9878408,35.023213 35.9878408,35.023213 C35.9878408,35.023213 38.0751658,30.0257922 40.3610906,31.8496684 C41.141041,32.5144865 41.5058931,33.5456576 41.3176124,34.5530582 L41.3257185,34.5530582 Z" id="Shape" fill="#FFFFFF"></path>
                    <path d="M90.4641288,20.1083493 C90.015374,19.7248506 89.5110776,19.4148609 88.9692533,19.1894531 C88.5090465,18.9983158 88.0178265,18.8971171 87.5210926,18.8911102 C87.0051655,18.8667726 86.4958932,19.0178542 86.0729319,19.320724 C85.7150913,19.5760803 85.5049641,19.9965644 85.5123536,20.4424934 C85.5002314,20.7349593 85.6008696,21.0206138 85.7926428,21.2380746 C86.0030258,21.4623403 86.2525594,21.6444703 86.5284018,21.7750919 C86.8589811,21.9380322 87.2028654,22.0711356 87.5561287,22.1728824 C87.9376334,22.2842638 88.3152452,22.403601 88.6889641,22.530894 C90.1838397,23.0400659 91.277746,23.7202878 91.9706831,24.5715596 C92.6867653,25.5180477 93.0497104,26.6941143 92.9945171,27.889133 C93.0065619,28.7470678 92.851744,29.5989048 92.5390472,30.3952137 C92.2438908,31.1307082 91.7885696,31.7877902 91.2076737,32.3165421 C90.5809359,32.8745509 89.8498854,33.2967756 89.0587901,33.5576487 C88.1322862,33.8632419 87.1632086,34.0123821 86.1897191,33.9991963 C83.9695558,34.0014743 81.8046463,33.2919072 80,31.9704643 L81.9464525,28.1994097 C82.5500678,28.7649521 83.2355051,29.2318879 83.978549,29.5837209 C84.6102222,29.8733711 85.2949299,30.0225231 85.987288,30.0212905 C86.5890939,30.0699167 87.1863862,29.8821216 87.6573443,29.496207 C88.1819925,29.0204048 88.3400921,28.2498036 88.0466348,27.5987459 C87.9365828,27.3799016 87.7762977,27.1915489 87.5794862,27.0497949 C87.3161725,26.8576758 87.0296041,26.7012348 86.72694,26.5843799 C86.3765785,26.4411753 85.9522519,26.2820591 85.45396,26.1070312 C84.8622384,25.9160918 84.2821956,25.7052628 83.7138314,25.4745442 C83.1624783,25.2541047 82.6497485,24.9437799 82.1955985,24.555648 C81.7403389,24.1585447 81.373918,23.6660989 81.1211567,23.1116682 C80.8262213,22.4158819 80.6865914,21.6617234 80.7124016,20.9039305 C80.7049564,20.0759182 80.8557037,19.2543778 81.1561928,18.4853638 C81.4289598,17.784721 81.8427622,17.1504645 82.3707792,16.6237039 C82.9206969,16.0936627 83.5731313,15.6871504 84.2860885,15.4303322 C85.0990373,15.1339226 85.9573024,14.9884287 86.8203697,15.0007183 C87.7402103,15.0081236 88.6555794,15.1323923 89.5454032,15.3706636 C90.4934774,15.6184161 91.4085413,15.9830834 92.2704368,16.4566318 L90.4641288,20.1083493 Z" id="Shape" fill="#F99D47"></path>
                    <polygon id="Shape" fill="#F99D47" points="94 33 97.1164432 15 101.831687 15 105.508116 24.596817 109.160198 15 113.883557 15 117 33 112.260409 33 110.677841 22.6551724 106.344037 33 104.444954 33 100.330275 22.6551724 98.7477064 33"></polygon>
                    <path d="M130.881083,29.872679 L124.110876,29.872679 L123.025391,33 L118,33 L124.914939,15 L130.077021,15 L137,33 L131.966568,33 L130.881083,29.872679 Z M129.626746,26.3156499 L127.50402,20.3236074 L125.381295,26.3156499 L129.626746,26.3156499 Z" id="Shape" fill="#F99D47"></path>
                    <path d="M154,33 L148.160913,33 L143.699947,26.0774947 L143.699947,33 L139,33 L139,15.0014863 L146.288901,15.0014863 C147.185095,14.983246 148.076767,15.1330375 148.917685,15.4430944 C150.293434,15.9484612 151.374257,17.0367903 151.869092,18.4149975 C152.119564,19.1033975 152.245004,19.8309288 152.239511,20.5633612 C152.294501,21.7533231 151.944977,22.9268868 151.247743,23.8933249 C150.504702,24.7945877 149.468742,25.4070055 148.320234,25.6239513 L154,33 Z M143.699947,23.0538717 L144.576208,23.0538717 C145.329087,23.1029448 146.077029,22.9014833 146.703133,22.4809747 C147.203997,22.0853093 147.480444,21.4706967 147.443972,20.8338959 C147.484991,20.1957636 147.21137,19.5778499 146.711099,19.1788601 C146.082791,18.7566413 145.331758,18.5551022 144.576208,18.6059631 L143.699947,18.6059631 L143.699947,23.0538717 Z" id="Shape" fill="#F99D47"></path>
                    <polygon id="Shape" fill="#F99D47" points="162.285714 18.975265 162.285714 33 157.72973 33 157.72973 18.975265 154 18.975265 154 15 166 15 166 18.975265"></polygon>
                    <polygon id="Shape" fill="#FFFFFF" points="79 57 82.1153439 39 86.837037 39 90.5121693 48.596817 94.162963 39 98.8846561 39 102 57 97.2539683 57 95.6719577 46.6551724 91.3396825 57 89.4412698 57 85.3199295 46.6392573 83.7379189 56.9840849"></polygon>
                    <path d="M115.875635,53.872679 L109.124365,53.872679 L108.03934,57 L103,57 L109.920051,39 L115.079949,39 L122,57 L116.968697,57 L115.875635,53.872679 Z M114.621827,50.3156499 L112.5,44.3236074 L110.378173,50.3156499 L114.621827,50.3156499 Z" id="Shape" fill="#FFFFFF"></path>
                    <polygon id="Shape" fill="#FFFFFF" points="130.27027 42.975265 130.27027 57 125.72973 57 125.72973 42.975265 122 42.975265 122 39 134 39 134 42.975265"></polygon>
                    <path d="M151,57 L145.162679,57 L140.688995,50.0774947 L140.688995,57 L136,57 L136,39.0014863 L143.296651,39.0014863 C144.193798,38.983246 145.086418,39.1330375 145.92823,39.4430944 C147.305442,39.9484612 148.387415,41.0367903 148.882775,42.4149975 C149.133513,43.1033975 149.259087,43.8309288 149.253589,44.5633612 C149.308636,45.7533231 148.95874,46.9268868 148.260766,47.8933249 C147.516934,48.7945877 146.479873,49.4070055 145.330144,49.6239513 L151,57 Z M140.688995,47.0538717 L141.574163,47.0538717 C142.327842,47.1029448 143.076579,46.9014833 143.703349,46.4809747 C144.174755,46.0627226 144.444456,45.4633241 144.444456,44.8338959 C144.444456,44.2044676 144.174755,43.6050692 143.703349,43.186817 C143.076579,42.7663085 142.327842,42.5648469 141.574163,42.61392 L140.688995,42.61392 L140.688995,47.0538717 Z" id="Shape" fill="#FFFFFF"></path>
                    <polygon id="Shape" fill="#FFFFFF" points="157 39 157 57 153 57 153 39"></polygon>
                    <polygon id="Shape" fill="#FFFFFF" points="159 57 162.115344 39 166.837037 39 170.512169 48.596817 174.162963 39 178.884656 39 182 57 177.253968 57 175.671958 46.6551724 171.339683 57 169.44127 57 165.328042 46.6551724 163.746032 57"></polygon>
                    <path d="M183.000804,47.5 C182.949847,43.6235922 185.323869,40.124681 188.95264,38.72799 C191.550872,37.7573367 194.413935,37.7573367 197.012167,38.72799 C198.194197,39.1830454 199.273135,39.8687773 200.185681,40.7449556 C201.07149,41.6036204 201.775911,42.6302738 202.257447,43.7644366 C203.247518,46.1570789 203.247518,48.8429211 202.257447,51.2355634 C201.775911,52.3697262 201.07149,53.3963796 200.185681,54.2550444 C199.273135,55.1312227 198.194197,55.8169546 197.012167,56.27201 C194.413935,57.2426633 191.550872,57.2426633 188.95264,56.27201 C185.337532,54.8694139 182.968611,51.3859376 183.000804,47.5198912 L183.000804,47.5 Z M187.910769,47.5 C187.899932,48.1838262 188.03604,48.8620478 188.309953,49.4891179 C188.835976,50.6827058 189.812633,51.6217322 191.028397,52.1028188 C192.282661,52.5961586 193.678154,52.5961586 194.932418,52.1028188 C195.536531,51.8629003 196.089269,51.5105159 196.561089,51.0644993 C197.034692,50.6130473 197.413302,50.0720874 197.674813,49.473205 C198.222127,48.2032155 198.222127,46.7649586 197.674813,45.4949691 C197.413302,44.8960867 197.034692,44.3551268 196.561089,43.9036748 C196.089269,43.4576582 195.536531,43.1052739 194.932418,42.8653553 C193.678154,42.3720155 192.282661,42.3720155 191.028397,42.8653553 C189.812633,43.3464419 188.835976,44.2854683 188.309953,45.4790562 C188.031531,46.1159215 187.895326,46.8054844 187.910769,47.5 Z" id="Shape" fill="#FFFFFF"></path>
                    <polygon id="Shape" fill="#FFFFFF" points="205 57 205 39 209.685259 39 218.338645 50.005305 218.338645 39 223 39 223 57 218.338645 57 209.685259 45.994695 209.685259 57"></polygon>
                    <polygon id="Shape" fill="#FFFFFF" points="231.638355 48.354268 225 39 230.632544 39 234.01207 43.9199469 237.367456 39 243 39 236.369692 48.354268 236.369692 57 231.638355 57"></polygon>
                </g>
            </g>
        </g>
    </g>
</svg>