<?xml version="1.0" encoding="utf-8"?>
<!-- Generator: Adobe Illustrator 22.1.0, SVG Export Plug-In . SVG Version: 6.00 Build 0)  -->
<svg version="1.1" id="Layer_1" xmlns="http://www.w3.org/2000/svg" xmlns:xlink="http://www.w3.org/1999/xlink" x="0px" y="0px"
	 viewBox="0 0 96 96" style="enable-background:new 0 0 96 96;" xml:space="preserve">
<style type="text/css">
	.st0{fill:#F86849;}
</style>
<title>MyClients</title>
<path class="st0" d="M48,5c23.7,0,43,19.3,43,43S71.7,91,48,91S5,71.7,5,48S24.3,5,48,5 M48,0C21.5,0,0,21.5,0,48s21.5,48,48,48
	s48-21.5,48-48S74.5,0,48,0z"/>
<path class="st0" d="M48,10c-21,0-38,17-38,38s17,38,38,38s38-17,38-38S69,10,48,10z M64,62.1c0,2.2-1.8,4-4,4H36c-2.2,0-4-1.8-4-4
	v-32c0-2.2,1.8-4,4-4h22c1.1,0,2,0.9,2,2v2H38c-1.1,0-2,0.9-2,2c0,1.1,0.9,2,2,2h2v16l4-4l4,4v-16h14c1.1,0,2,0.9,2,2V62.1z"/>
</svg>
