<?xml version="1.0" encoding="UTF-8"?>
<svg width="985px" height="18px" viewBox="0 0 985 18" version="1.1" xmlns="http://www.w3.org/2000/svg" xmlns:xlink="http://www.w3.org/1999/xlink">
    <!-- Generator: Sketch 49.3 (51167) - http://www.bohemiancoding.com/sketch -->
    <title>Group 3</title>
    <desc>Created with Sketch.</desc>
    <defs>
        <linearGradient x1="5.91848906%" y1="50%" x2="97.9402528%" y2="50%" id="linearGradient-1">
            <stop stop-color="#F89D46" offset="0%"></stop>
            <stop stop-color="#F16447" offset="100%"></stop>
        </linearGradient>
    </defs>
    <g id="Blog-Page" stroke="none" stroke-width="1" fill="none" fill-rule="evenodd">
        <g id="Questionnaire" transform="translate(-478.000000, -322.000000)">
            <g id="Group-3" transform="translate(478.000000, 322.000000)">
                <path d="M967.512117,6 C968.747626,2.50442288 972.081344,0 976,0 C980.970563,0 985,4.02943725 985,9 C985,9.10310222 984.998266,9.20579951 984.994827,9.30806432 C984.998261,9.37160704 985,9.4356004 985,9.5 C985,9.78056837 984.966987,10.0534261 984.904634,10.3149007 C984.268244,14.6621837 980.523916,18 976,18 C972.466279,18 969.408223,15.9634373 967.93552,13.0000007 L876.620039,13 C875.147333,15.9634373 872.089277,18 868.555556,18 C865.021835,18 861.963778,15.9634373 860.491076,13.0000007 L769.175595,13 C767.702888,15.9634373 764.644832,18 761.111111,18 C757.57739,18 754.519334,15.9634373 753.046631,13.0000007 L661.73115,13 C660.258444,15.9634373 657.200388,18 653.666667,18 C650.132946,18 647.074889,15.9634373 645.602187,13.0000007 L554.286706,13 C552.813999,15.9634373 549.755943,18 546.222222,18 C542.688501,18 539.630445,15.9634373 538.157742,13.0000007 L446.842261,13 C445.369555,15.9634373 442.311499,18 438.777778,18 C435.244057,18 432.186001,15.9634373 430.713298,13.0000007 L339.397817,13 C337.925111,15.9634373 334.867054,18 331.333333,18 C327.799612,18 324.741556,15.9634373 323.268853,13.0000007 L232.064483,13 C230.591777,15.9634373 227.533721,18 224,18 C220.466279,18 217.408223,15.9634373 215.93552,13.0000007 L124.508928,13 C123.036222,15.9634373 119.978165,18 116.444444,18 C112.910723,18 109.852667,15.9634373 108.379964,13.0000007 L17.0644834,13 C15.5917773,15.9634373 12.533721,18 9,18 C4.02943725,18 0,13.9705627 0,9 C0,4.02943725 4.02943725,0 9,0 C12.9186565,0 16.2523737,2.50442288 17.4878829,6 L107.956562,6 C109.192071,2.50442288 112.525788,0 116.444444,0 C120.363101,0 123.696818,2.50442288 124.932327,6 L215.512117,6 C216.747626,2.50442288 220.081344,0 224,0 C227.918656,0 231.252374,2.50442288 232.487883,6 L322.84545,6 C324.08096,2.50442288 327.414677,0 331.333333,0 C335.25199,0 338.585707,2.50442288 339.821216,6 L430.289895,6 C431.525404,2.50442288 434.859121,0 438.777778,0 C442.696434,0 446.030151,2.50442288 447.265661,6 L537.734339,6 C538.969849,2.50442288 542.303566,0 546.222222,0 C550.140879,0 553.474596,2.50442288 554.710105,6 L645.178784,6 C646.414293,2.50442288 649.74801,0 653.666667,0 C657.585323,0 660.91904,2.50442288 662.15455,6 L752.623228,6 C753.858737,2.50442288 757.192455,0 761.111111,0 C765.029768,0 768.363485,2.50442288 769.598994,6 L860.067673,6 C861.303182,2.50442288 864.636899,0 868.555556,0 C872.474212,0 875.807929,2.50442288 877.043438,6 L967.512117,6 Z" id="Combined-Shape" fill="#FFFFFF"></path>
                <path d="M430.713294,13 L339.397817,13 C337.925111,15.9634373 334.867054,18 331.333333,18 C327.799612,18 324.741556,15.9634373 323.268853,13.0000007 L232.064483,13 C230.591777,15.9634373 227.533721,18 224,18 C220.466279,18 217.408223,15.9634373 215.93552,13.0000007 L124.508928,13 C123.036222,15.9634373 119.978165,18 116.444444,18 C112.910723,18 109.852667,15.9634373 108.379964,13.0000007 L17.0644834,13 C15.5917773,15.9634373 12.533721,18 9,18 C4.02943725,18 0,13.9705627 0,9 C0,4.02943725 4.02943725,0 9,0 C12.9186565,0 16.2523737,2.50442288 17.4878829,6 L107.956562,6 C109.192071,2.50442288 112.525788,0 116.444444,0 C120.363101,0 123.696818,2.50442288 124.932327,6 L215.512117,6 C216.747626,2.50442288 220.081344,0 224,0 C227.918656,0 231.252374,2.50442288 232.487883,6 L322.84545,6 C324.08096,2.50442288 327.414677,0 331.333333,0 C335.25199,0 338.585707,2.50442288 339.821216,6 L430.289895,6 C431.525404,2.50442288 434.859121,0 438.777778,0 C443.748341,0 447.777778,4.02943725 447.777778,9 C447.777778,13.9705627 443.748341,18 438.777778,18 C435.244057,18 432.186001,15.9634373 430.713298,13.0000007 Z" id="Combined-Shape" fill="url(#linearGradient-1)"></path>
            </g>
        </g>
    </g>
</svg>