<?xml version="1.0" encoding="UTF-8"?>
<svg width="141px" height="53px" viewBox="0 0 141 53" version="1.1" xmlns="http://www.w3.org/2000/svg" xmlns:xlink="http://www.w3.org/1999/xlink">
    <!-- Generator: Sketch 49.3 (51167) - http://www.bohemiancoding.com/sketch -->
    <title>Shape</title>
    <desc>Created with Sketch.</desc>
    <defs></defs>
    <g id="Blog-Page" stroke="none" stroke-width="1" fill="none" fill-rule="evenodd">
        <g id="Welcome-Screen" transform="translate(-141.000000, -709.000000)" fill="#F9C659" fill-rule="nonzero">
            <g id="Sig2" transform="translate(141.000000, 709.000000)">
                <path d="M140.996076,10.6899267 C140.981716,10.3406189 140.737596,9.95581237 140.494912,9.67466221 C140.23356,9.37079285 139.855892,9.16206016 139.519869,8.92350851 C138.182953,7.96930192 136.59761,7.67821212 135.035243,7.47941908 C132.647176,7.17696967 130.247621,7.367243 127.873914,7.74778968 C125.875003,8.06869844 123.896196,8.48190398 121.920261,8.94480777 C119.707387,9.46450957 117.651036,10.3519785 115.617661,11.2749462 C114.063494,11.9820169 112.614134,12.8954188 111.309663,13.9898911 C110.282923,14.8418613 109.42994,15.8571257 108.427612,16.7247154 C107.824492,17.2472571 107.337689,17.8975943 106.756109,18.4456951 C105.870097,19.2806259 105.152098,20.2433522 104.435534,21.2131782 C103.98463,21.8223369 103.494955,22.3491384 102.637663,22.4343354 C101.689903,22.5252123 100.747888,22.6970262 99.8116164,22.8731001 C97.8437187,23.2509981 95.8452744,23.4520308 93.8407314,23.473739 C92.7895799,23.4808388 91.7369925,23.473739 90.681533,23.5149176 C88.5275341,23.5986947 86.3735351,23.673952 84.2338962,23.8258867 C82.4805411,23.9508423 80.7343659,24.1780344 78.9867548,24.3683077 C77.6771235,24.5103028 76.3674921,24.6721771 75.0578608,24.8141721 C74.7247089,24.8496709 74.3168851,24.7374948 74.1359492,25.1066819 C73.9550133,25.4758689 74.2996531,25.7555992 74.4906411,25.9969907 C75.0650408,26.7282651 75.7141124,27.416941 76.2310722,27.9991206 C77.1242637,27.9991206 77.8781634,28.0289396 78.629191,27.9991206 C81.0172578,27.8826847 83.4067606,27.7776084 85.7919554,27.5986946 C87.5898265,27.4566996 89.3819536,27.2266676 91.1740807,27.0307145 C91.9495203,26.9440975 92.722088,26.8319215 93.4960916,26.7325249 L97.5657135,26.2085633 C98.2679172,26.1176865 98.9686848,26.0154501 99.6723245,25.9245732 C99.900007,25.9125312 100.128178,25.9125312 100.35586,25.9245732 C100.167744,26.2270226 100.052864,26.4272356 99.9250604,26.6189289 C99.3506607,27.4637993 98.753285,28.2873705 98.2305812,29.15922 C97.9749733,29.5852051 97.6820295,29.7272001 97.2253817,29.671822 C96.5203061,29.5979846 95.8137944,29.529827 95.1058468,29.500008 C93.0810878,29.4034514 91.0548928,29.3452335 89.0315698,29.2330574 C85.8824234,29.0598235 82.7361489,28.8269516 79.5855665,28.6650773 C76.8025999,28.5230823 74.0167613,28.4549246 71.2323587,28.3612079 C69.2793997,28.2944703 67.3250046,28.2192129 65.3706096,28.1822942 C62.7298069,28.1340159 60.0890042,28.0970972 57.4482016,28.0914174 C55.2482506,28.0914174 53.0482997,28.1169765 50.8497848,28.1652548 C48.4085861,28.2177929 45.9602073,28.2859506 43.5175725,28.3938668 C41.7110854,28.473384 39.9089063,28.6253187 38.1038552,28.7474344 C36.8114558,28.8340514 35.5190565,28.9135686 34.2266571,29.014385 C32.8638938,29.1223013 31.4982585,29.2486768 30.1398032,29.3707926 C28.7296519,29.4976415 27.3199792,29.625437 25.9107853,29.7541791 L24.7189059,29.8649353 C25.2301216,29.6192839 25.7614414,29.4971681 26.2855811,29.3452335 C26.538317,29.2713961 26.8815208,29.2032384 27.0035807,29.0214848 C27.3424766,28.4762239 27.7905083,28.5784603 28.3074681,28.6040194 C28.8244278,28.6295785 29.3557476,28.4833236 29.8784513,28.4094862 C30.1900631,28.3654678 30.0895432,28.0814777 30.1814472,27.9068238 C30.233911,27.8264474 30.3175322,27.7709806 30.412643,27.7534692 C30.7400509,27.7066108 31.0430467,27.5660358 31.4063545,27.7534692 C31.8558223,27.9792413 31.9520343,27.8954642 32.2679541,27.4694791 C32.3719531,27.3452541 32.5108831,27.2543281 32.6671619,27.2082083 C33.5488655,26.9242182 34.442057,26.6771469 35.3208886,26.387477 C36.015251,26.151497 36.7411206,26.0184727 37.4748875,25.9927308 L36.2614681,26.4811937 C37.1331197,26.5365718 37.5825875,26.3391987 38.0679552,25.8862346 C38.3328668,25.6431407 38.6471604,25.4587053 38.9898668,25.3452335 C40.1271782,24.9911926 41.272627,24.666024 42.426213,24.3697277 C43.7301004,24.0331995 44.9664958,23.4297206 46.3479271,23.389962 C46.4082391,23.389962 46.467115,23.3232243 46.527427,23.2891455 C46.7679679,23.1367612 47.0189132,23.0010666 47.2784546,22.8830397 C47.7781824,22.6927664 48.2937061,22.5408317 48.8020499,22.3732776 C49.6550334,22.0892875 50.509453,21.8123972 51.3653086,21.5369269 C51.3897206,21.5284072 51.4342366,21.5795254 51.4687005,21.6022446 L51.2576086,21.8535758 C51.5448085,21.9075339 51.8521123,21.904694 51.8865763,21.6349034 C51.9511963,21.1492804 52.3389161,21.103842 52.6505279,20.9732066 C53.0356381,20.835367 53.4277129,20.7173529 53.8251754,20.619639 L53.2579556,21.2586166 C54.1470548,20.9988676 55.0185502,20.6834756 55.8671663,20.3143497 L55.6862304,19.8372464 C55.8671663,19.8287267 56.0265623,19.7719287 56.0911822,19.8258868 C56.556446,20.2092734 56.9527818,19.9565222 57.3677856,19.73501 C57.4905018,19.6583118 57.6175561,19.5886203 57.7483254,19.5262773 C59.0349808,19.0179351 60.3240295,18.5124328 61.6154715,18.0097704 C62.0893512,17.8223369 62.568975,17.6448431 63.0356748,17.4417903 C64.577938,16.7701538 66.1202012,16.0999372 67.6524125,15.4055815 C68.9448118,14.8234019 70.2099272,14.2114034 71.4879666,13.6093444 C71.6233178,13.563671 71.7485855,13.4928206 71.8570184,13.4006118 C72.4082095,12.8114616 72.7596257,12.066843 72.8622179,11.2706863 C72.9380134,10.7717428 72.6043459,10.3018306 72.1040102,10.2028837 C71.6071545,10.0836079 71.0988107,10.0140303 70.591903,9.92883331 C70.1281506,9.84568282 69.6506833,9.96475095 69.2822717,10.2554219 C68.8362769,10.594455 68.3722652,10.9096607 67.8922243,11.1996888 C65.9048013,12.3526884 63.8944023,13.4389504 61.7734314,14.3221595 C61.4359716,14.4641545 61.0841517,14.5706508 60.7509999,14.7197456 C59.3480286,15.3473636 57.9723413,16.0388794 56.544958,16.6096994 C53.5537715,17.8038776 50.552533,18.9810164 47.5240105,20.0800579 C45.5739235,20.790033 43.5692685,21.3466535 41.5875895,21.9671718 C40.6096739,22.2724611 39.6317584,22.5848502 38.6452269,22.8645804 C36.9306438,23.3516233 35.1988286,23.7747685 33.4914255,24.2987302 C30.5950149,25.189039 27.6555244,25.9103737 24.7074179,26.6033095 C24.4730554,26.6412734 24.2366854,26.6659263 23.9994702,26.6771469 C24.0929193,26.5396962 24.1945771,26.40788 24.3039021,26.2824007 C25.5120561,25.1227746 26.7221249,23.9645685 27.9341083,22.8077824 C28.8660718,21.9217334 29.8210113,21.0569837 30.7429229,20.160995 C31.5083105,19.4155211 32.2449781,18.6430682 32.9845178,17.8734551 C33.7240574,17.1038421 34.475085,16.3413288 35.1801607,15.5418968 C35.8852363,14.7424648 36.54436,13.9061141 37.2149716,13.079703 C38.422647,11.5887552 39.6561704,10.1134268 40.8193298,8.5955 C41.8417613,7.26926643 42.8584488,5.93167327 43.7559484,4.52450254 C44.3619401,3.5745558 45.1230197,2.63880857 44.9449558,1.35801341 C44.8516158,0.683537028 44.479692,0.183714529 43.8076444,0.0800581585 C42.2610731,-0.16559324 41.8173493,0.114136965 41.0620137,1.48012914 C40.2320061,2.98243653 39.3503026,4.46202473 38.3967991,5.89191466 C37.5912035,7.10029235 36.6391359,8.21211342 35.7732284,9.38215245 C34.513857,11.0860928 33.1008337,12.6480381 31.6720144,14.2099834 C30.8506228,15.1045521 30.0464632,16.0175801 29.2006596,16.8894296 C28.43958,17.6704022 27.6411644,18.420136 26.8456208,19.1684498 C26.0500772,19.9167636 25.1640657,20.562841 24.436014,21.3594331 C23.1076333,22.7978001 21.6445238,24.1085824 20.0662682,25.274236 C19.043873,26.0577492 18.070846,26.9022998 17.1526256,27.8031675 C16.5609939,28.3711476 15.9435143,28.8283716 15.1422267,29.015805 C12.8115998,29.558226 10.486717,30.1361458 8.14603814,30.6331284 C6.50181896,30.9810162 4.83318779,31.2124681 3.17891662,31.5106576 C2.86569059,31.5678611 2.56084727,31.6632523 2.27136507,31.7946477 C1.97554922,31.9366427 1.89800526,32.2206328 2.10478915,32.4577645 C2.487308,32.9201702 2.9008521,33.3566069 3.34262054,33.7641187 C3.73376399,34.0901505 4.1457962,34.3908593 4.57614392,34.6643672 C4.67162195,34.7352549 4.78706657,34.7749608 4.90642376,34.7779632 C5.97911522,34.7296849 7.05180669,34.6657872 8.12449815,34.613249 C8.34851404,34.6033094 8.57396593,34.613249 8.88701377,34.6246086 C8.82248396,34.7489492 8.74602489,34.8668733 8.65868988,34.9767563 C7.87894227,35.671112 7.10206666,36.3683076 6.30795906,37.0484637 C5.06725568,38.0963871 3.82942429,39.1528301 2.57723292,40.183714 C1.97985721,40.6750168 1.38248151,41.1918787 0.710433848,41.5610657 C-0.0865457545,41.9984104 -0.251685672,42.3633376 0.413181996,42.9710764 C1.08605469,43.5573873 1.79435144,44.1027074 2.53415294,44.6040192 C2.99798071,44.9348676 3.10855265,44.896529 3.52355645,44.4620242 C3.85814428,44.1098765 4.14678013,43.7023508 4.52875594,43.4084211 C5.98773122,42.2724608 7.25715458,40.9306078 8.73192585,39.8060072 C9.88790527,38.9227981 10.9433647,37.9089536 12.0419042,36.9504872 C13.2481436,35.8968841 14.458691,34.8489608 15.6548784,33.783998 C16.079075,33.4119225 16.6123825,33.1835712 17.1770376,33.1322409 C18.6302689,32.9661067 20.0863722,32.8255316 21.5424755,32.6892164 C23.1479227,32.537755 24.7548059,32.39576 26.3631251,32.2632313 C27.1873886,32.1950737 28.0173962,32.1950737 28.8402238,32.1070368 C30.539011,31.9238632 32.2334901,31.6952512 33.9308413,31.5035579 C34.416209,31.4481798 34.9130648,31.4879384 35.3955606,31.4226207 C36.528564,31.2692661 37.6716194,31.3658227 38.8132388,31.1386307 C39.9247023,30.9199583 41.0936057,30.9838561 42.2395331,30.9355778 C42.7636729,30.9142785 43.2921206,30.9355778 43.8191323,30.9100187 C44.8932598,30.8503808 45.9645153,30.7481443 47.0372067,30.6984461 C48.0596382,30.6530077 49.0820697,30.6530077 50.1045012,30.6331284 C51.2533006,30.6089892 52.3934841,30.5706506 53.5394115,30.5663907 C54.535995,30.5663907 55.5340145,30.6061493 56.532034,30.6047294 C57.6995014,30.6047294 58.8669688,30.5507713 60.0344363,30.5649708 C60.8156199,30.5749104 61.5968035,30.7069658 62.3765511,30.6970261 C62.9049988,30.6899264 63.4348826,30.6686271 63.9561503,30.6530077 C64.507574,30.6359683 65.0618698,30.6757269 65.6104215,30.6416481 C66.8496889,30.5621309 68.0789043,30.8546406 69.3167356,30.7027059 C69.3891126,30.7071382 69.4608231,30.7190357 69.5306995,30.7382047 C69.8394394,30.7694436 70.1467432,30.8120421 70.4569191,30.8191419 C70.8202269,30.8290815 71.1835347,30.7935828 71.5482785,30.7992626 C72.4385981,30.8120421 73.3289176,30.8219818 74.2192372,30.8603204 C75.6552365,30.9227982 77.1027238,30.8347613 78.517183,31.185489 C78.6597944,31.2062705 78.8043681,31.2105592 78.9479828,31.1982686 C79.8713304,31.2067883 80.7946779,31.1982686 81.7151535,31.2323474 C82.1172332,31.2493868 82.545161,31.499298 82.9070329,31.415521 C83.8246364,31.2025284 84.703468,31.415521 85.5980955,31.4836786 C86.1940352,31.5305369 86.7885389,31.5972746 87.3859146,31.6341933 C87.8913864,31.6640123 88.4011661,31.642713 88.9037659,31.6867315 C89.3632856,31.72791 89.8184974,31.8926243 90.2737092,31.8855245 C91.1551275,31.8795161 92.0360896,31.9269367 92.9116399,32.0275195 C93.8062674,32.1198163 94.703767,32.1695146 95.5998305,32.2476118 C95.8094864,32.2660712 96.0148343,32.3214493 96.3436782,32.3825071 C96.0133983,33.0328443 95.7506105,33.6235437 95.4131506,34.1702245 C95.3169387,34.3249991 95.0081988,34.384637 94.7856189,34.4229757 C94.3059952,34.5053328 93.7947794,34.4769338 93.3410037,34.6246086 C92.8872279,34.7722834 92.3472921,34.4087762 91.9595723,34.8773598 C91.9365964,34.9057588 91.7901244,34.8248216 91.6982205,34.8106221 C91.5099092,34.7668728 91.3172535,34.7440125 91.1238208,34.7424645 C90.1976012,34.7992625 89.2713817,34.8574805 88.3480341,34.9483573 C86.7483309,35.1045518 85.1514997,35.3090246 83.5489245,35.4495997 C81.4107216,35.6370332 79.2653387,35.7634087 77.1271357,35.9508422 C75.5733845,36.0928372 74.0268133,36.2930502 72.4759341,36.4492447 C70.0950472,36.6906363 67.7112884,36.9064687 65.3318376,37.1592199 C64.0193343,37.3012149 62.7125749,37.5014279 61.4000716,37.640583 C60.2340402,37.7655386 59.0593927,37.8223366 57.8933613,37.9458723 C56.457362,38.099227 55.0314148,38.3065397 53.5968515,38.4641542 C51.8219564,38.6601073 50.0427532,38.810622 48.2692941,39.0150949 C45.0641437,39.3857019 41.8647373,39.7889678 38.6595869,40.1638347 C36.8631518,40.3725674 35.0624087,40.5514811 33.2631016,40.7474342 C31.4910785,40.9405475 29.7176194,41.1407605 27.9499043,41.3338737 C26.541189,41.4872283 25.1310377,41.6334832 23.7223224,41.7910977 C22.3136071,41.9487122 20.8618118,42.1105865 19.4344285,42.2909202 C17.8548293,42.4882933 16.2838461,42.6899262 14.7128629,42.9199582 C12.9307878,43.181229 11.1961006,43.7378495 9.37238153,43.7719283 C9.12826165,43.7719283 8.88557777,43.9366426 8.67304988,44.0147398 C8.65868988,44.8226915 8.68453787,44.86671 9.30919756,45.1350806 C9.48726147,45.2131779 9.78307732,45.2770756 9.81466931,45.3935115 C10.0027852,46.1034867 10.5800569,46.2454817 11.1415326,46.5422513 C11.5336202,46.7709624 11.9787903,46.8956842 12.433932,46.9043386 C15.1034547,46.9043386 17.7342054,46.4783536 20.379316,46.2028832 C21.6152328,46.0750877 22.8501921,45.9330927 24.0841942,45.7768981 C24.467606,45.7300398 24.8424018,45.5880447 25.2329936,45.5624856 C26.1778811,45.4985879 27.1242047,45.4815485 28.0705282,45.43895 C28.8244278,45.4048712 29.5811994,45.3991913 30.3293551,45.3111544 C31.3582834,45.1816413 32.3956164,45.1289541 33.4325495,45.15354 C35.0121487,45.2074981 36.6061079,45.093902 38.1871432,45.1719993 C39.6777104,45.2458367 41.1352497,44.8184317 42.6387409,45.0300043 C43.5951165,45.1606397 44.574468,44.9703664 45.5495115,45.066923 C46.1741712,45.1279808 46.8131909,45.0470437 47.4450305,45.0569833 C48.44305,45.0711828 49.4554295,45.2444168 50.4347811,45.0981619 C51.6051205,44.9220881 52.7481759,45.15212 53.9012833,45.0640831 C54.2413749,45.0525112 54.5818639,45.061521 54.9208428,45.0910621 C56.9168818,45.181939 58.9143568,45.2529365 60.9089598,45.3750522 C62.2645432,45.4574093 63.6373585,45.3551729 64.9771458,45.6320632 C65.571941,45.7650039 66.176489,45.8509453 66.7850689,45.8890742 C68.2684562,45.9586518 69.7489714,46.0310692 71.1978947,46.3874767 C71.3899839,46.4231027 71.584285,46.4458736 71.7794744,46.4556344 C71.4450955,46.6882442 71.0745065,46.8652325 70.682371,46.979596 C69.2205237,47.4623791 67.7500604,47.8883642 66.2063612,48.0601782 C64.4099261,48.2589712 62.623543,48.5344416 60.8342879,48.7857728 C60.1162882,48.8880092 59.3896726,49.0200646 58.6644929,49.1265608 C58.3040571,49.180519 57.9292613,49.1734192 57.5788775,49.2685559 C57.3508733,49.3258931 57.1487338,49.4568148 57.0044778,49.6405828 C56.600962,50.2170827 56.8608778,50.8148817 57.6176495,51.2224075 C57.8660429,51.3605451 58.0916926,51.5353126 58.2868251,51.7406893 C58.637209,52.1027766 58.9459488,52.5032026 59.2920246,52.8681298 C59.3971981,52.9612861 59.5360116,53.008406 59.6768724,52.9987653 C59.9196343,52.9602974 60.1595078,52.9057431 60.3948721,52.835471 C61.4388436,52.5954994 62.474199,52.3072495 63.5296585,52.1340155 C64.511882,51.9735612 65.5170815,51.949422 66.510793,51.8415058 C66.8913328,51.7989073 67.2618207,51.6696918 67.6423605,51.6114738 C68.1952202,51.5262768 68.7624399,51.5191771 69.3023756,51.3899616 C70.1783352,51.1798089 71.0255748,50.8844593 71.9015343,50.6444877 C73.8286454,50.1148462 75.7385244,49.4957479 77.7575394,49.3665324 C77.9283067,49.367338 78.0937734,49.3079322 78.2242392,49.1989783 C78.7397629,48.5954994 79.3730386,48.0743777 79.5984905,47.2607462 C79.8009664,46.550771 79.6142865,45.9316727 78.9106468,45.6533625 C78.0114876,45.2753548 77.0838937,44.9672387 76.1362962,44.7318147 C74.7333249,44.4137459 73.3059416,44.1893937 71.8814304,43.9764012 C70.0979192,43.7122904 68.3101001,43.4495996 66.515101,43.2777856 C64.49465,43.0860923 62.4655831,42.9767562 60.4393881,42.866 C58.9531288,42.7850629 57.4654335,42.7438843 55.9763023,42.724005 C53.9242593,42.6870863 51.8722163,42.6728868 49.8201734,42.6629472 C48.3540181,42.6558474 46.8864268,42.6799866 45.4202716,42.6743068 C45.0081398,42.6743068 44.596008,42.6118289 44.1838762,42.5777501 C44.4481,42.3462982 44.7582759,42.3036997 44.8042279,41.9288329 C44.8372558,41.6760817 45.0483477,41.5923046 45.3025196,41.6164438 C45.4678579,41.6445271 45.6371676,41.6401849 45.8008114,41.6036642 C46.2201232,41.4616692 46.503015,41.6192837 46.7528789,41.9274129 C46.7758549,41.9558119 46.8433468,41.9501321 46.9266348,41.9671715 L47.3574346,41.610764 C48.3468381,41.9103735 49.2242337,41.9046937 50.0413172,41.2756557 C50.2050212,41.1478602 50.447705,40.9916657 50.615717,41.0243245 C50.7837289,41.0569834 50.9258928,41.3168343 51.1484727,41.5511261 C51.5706565,41.3565929 52.0215603,41.1450203 52.475336,40.9419674 C52.9291118,40.7389145 53.4690475,40.6579774 53.8897953,40.8894293 C54.4010111,41.1634797 54.8634028,41.0839624 55.3616946,41.0186447 L55.4780105,40.3924467 L57.2715736,40.3924467 C57.2859336,40.4222656 57.3275776,40.5131424 57.3821456,40.6253185 L58.607053,39.8230466 C58.7276769,40.5017828 59.1067807,39.8656451 59.3796206,40.0204197 C59.4916285,40.1993334 59.6036365,40.3768272 59.7271324,40.5784601 L60.6748919,40.412326 L60.0775162,40.2050132 C60.211831,40.0863073 60.3856121,40.0206042 60.565756,40.0204197 C61.0137878,40.0048002 61.4819235,39.8358261 61.8581554,40.2944701 C61.9414433,40.3967065 62.2702871,40.3171893 62.484251,40.2944701 C62.6971242,40.2722079 62.9082229,40.2356785 63.1160907,40.1851339 C63.3280639,40.1581287 63.5341864,40.0972228 63.7263904,40.0048002 C63.8984484,39.8815447 64.1258361,39.8639957 64.3151501,39.9593618 C64.6928179,40.0899972 65.1150017,40.1354357 65.4381016,39.72507 C65.5903175,39.5319568 65.8502334,39.4226206 66.0512733,39.2834655 C66.3384731,39.5163373 66.4389931,39.9196032 66.8224049,39.7605688 C66.8382009,39.553256 66.8511249,39.3672426 66.8741009,39.0335542 C67.6567205,40.1013568 68.55422,39.5149174 69.3756116,39.5007179 C69.6111155,38.9213782 69.8796474,38.8134619 70.4124031,39.0875123 C70.4770231,39.1215912 70.528719,39.1755493 70.591903,39.2096281 C70.7355029,39.2834655 70.8877188,39.4254605 71.0069068,39.3999014 C71.1260947,39.3743423 71.2179987,39.182649 71.2668227,39.125851 C71.5468425,39.2138879 71.7679864,39.3502031 71.9848223,39.3374236 C72.4658821,39.3076046 72.9411978,39.2039483 73.4351816,39.1286909 C73.4021536,38.9966355 73.3705616,38.8745198 73.3375336,38.7467243 C73.7683334,38.697026 73.7683334,38.697026 73.9449613,38.8376011 C74.4130971,39.2011084 75.3522406,39.1031318 75.7342164,38.6672071 C75.9840803,38.383217 76.2798962,38.212823 76.7078239,38.441435 L76.1937362,38.927058 L77.2132957,38.8305013 C77.1917557,38.5962096 77.1773957,38.441435 77.1644717,38.3107995 C77.9916073,37.9884708 78.8072549,37.9629117 79.6516225,38.0367491 C79.5984905,38.2469018 79.5611545,38.3974165 79.5209465,38.5635507 L81.7510534,38.4300754 C81.8084934,38.2256025 81.8558814,38.0523686 81.8731134,37.9955706 L83.1123808,37.5781052 C83.0980026,37.74109 83.0980026,37.9050032 83.1123808,38.067988 C83.1363372,38.1556775 83.1999483,38.2274885 83.2847007,38.2625212 C83.3550646,38.2809806 83.5144606,38.2185028 83.5230765,38.1716444 C83.6293405,37.6249636 84.0974763,37.7783182 84.4464241,37.6349032 C84.4895041,37.7357197 84.5124801,37.7981975 84.542636,37.8592554 C84.572792,37.9203132 84.617308,37.9927307 84.674748,38.0935472 C85.0567238,37.3210942 85.6799475,37.6462628 86.2371152,37.7016409 L85.4731636,37.8833945 C85.7316434,37.9927307 86.0202793,38.069408 86.2213192,37.9700115 C86.4223591,37.870615 86.5257511,37.5979845 86.693763,37.3707925 C86.9278309,37.8166568 87.2681627,37.9614918 87.7262465,37.8336962 C87.9301584,37.1961386 87.9301584,37.1961386 88.4341941,37.6263835 C88.655338,37.8138169 88.8649939,37.7683785 89.0789578,37.6263835 C89.0559818,37.4843885 89.0373138,37.3679526 89.0186458,37.2529366 C89.5743775,37.2018184 90.0884653,36.9689465 90.675789,37.2074982 L90.2320652,37.4531496 L90.2751452,37.5653256 L91.6522685,37.5653256 C91.6020085,37.3906718 91.5689805,37.2728159 91.4856926,36.9859859 C91.7815084,37.1166214 91.9509563,37.1861989 92.1160963,37.269976 C92.2367202,37.3296139 92.3458561,37.4517296 92.4679161,37.4630892 C92.680444,37.4815486 92.9475398,37.5042678 93.1026278,37.3977715 C93.2577157,37.2912752 93.3208997,37.0229046 93.4041876,36.8638702 C93.6741555,36.8880094 93.9096594,36.9235081 94.1465993,36.926348 C94.4093871,36.926348 94.673611,36.9036288 94.9565028,36.8894293 L94.9565028,37.2018184 C95.8712344,37.3310338 95.8712344,37.3310338 96.56195,38.0821875 C96.645238,38.1716444 96.70555,38.2824005 96.7888379,38.3661776 C97.1191178,38.6899263 97.3948296,38.6927662 97.7452135,38.3775372 C97.8338979,38.2945905 97.9124554,38.201661 97.9792813,38.1006469 C98.5536811,37.2486767 99.2716807,36.6664971 100.381708,36.754534 C100.525308,36.7658936 100.668908,36.5827201 100.828304,36.4804836 C101.190176,36.9959256 101.721495,36.6224787 102.166655,36.6224787 C102.551503,36.6224787 102.933479,36.3384886 103.362843,36.1680946 C103.559575,36.240512 103.84821,36.440725 104.123922,36.4251056 C104.617906,36.3967066 105.146354,36.4038063 105.559922,35.9991205 C105.703521,35.8571255 105.953385,35.8386661 106.115653,35.7776082 C106.361209,35.9323828 106.553633,36.1482153 106.754673,36.155315 C106.984433,36.155315 107.221373,35.984921 107.459749,35.8841045 C107.982452,36.1340158 108.01548,36.1680946 108.243804,35.9948606 C108.523824,35.7733484 108.749276,35.8372462 109.0494,35.9338028 C109.678368,36.1354357 110.054599,36.0076402 110.361903,35.5873349 C110.848707,35.9636217 110.848707,35.9636217 111.576759,35.4850985 C111.941502,35.9536821 112.415382,35.7321698 112.895006,35.6966711 C113.413402,35.6583324 113.851381,35.612894 113.972005,34.8730999 L114.704365,35.5646157 C115.003053,35.4439199 115.329025,35.2962451 115.666485,35.1812291 C115.91922,35.0946122 116.179136,34.841861 116.454848,35.1812291 C116.573705,35.2461701 116.717968,35.2461701 116.836824,35.1812291 C117.023504,35.0307144 117.198696,35.1528301 117.358092,35.127271 C117.831971,35.0534336 118.442271,35.4354002 118.742395,34.7651837 C119.438855,35.1911688 120.076438,34.898659 120.709714,34.6785667 C121.051482,34.5607108 121.377454,34.3945767 121.726401,34.2525816 C121.839845,34.4059363 121.920261,34.5166924 122.002113,34.6260286 C122.855097,34.4840335 122.855097,34.4840335 123.092037,33.9998305 C123.745416,34.0282295 124.420336,34.2440619 125.049304,33.8493158 C125.105308,33.815237 125.22306,33.8904943 125.313528,33.8947542 C125.473702,33.9087429 125.634907,33.9063637 125.794587,33.8876544 C126.249799,33.8109771 126.700703,33.7172604 127.153043,33.6292235 C127.941406,33.4744489 128.732642,33.329614 129.515262,33.1634798 C130.442917,32.9675266 131.364829,32.7374947 132.292484,32.5472214 C133.297684,32.3342288 133.754331,31.5021379 134.322987,30.7992626 C134.387607,30.7183254 134.364631,30.5678107 134.380427,30.4485348 C134.486691,29.6320634 133.949627,29.1322409 133.401076,28.7062558 C131.728137,27.4283006 129.773741,26.6941863 127.76047,26.1830042 C125.747199,25.6718221 123.653513,25.3196744 121.585674,24.9476474 C120.097978,24.6788035 118.602624,24.4544514 117.099612,24.274591 C115.387901,24.0672783 113.667574,23.9281231 111.930014,23.7577291 C112.738482,23.5788154 113.519666,23.4141011 114.296541,23.2323475 C114.911149,23.0903525 115.518577,22.9114387 116.13462,22.7708637 C117.273368,22.5081729 118.420731,22.275301 119.556607,21.9998307 C119.918478,21.9117937 120.24445,21.6803418 120.606322,21.5994047 C121.334374,21.4389503 122.101197,21.4119712 122.810581,21.1961388 C124.36146,20.7232954 125.885055,20.160995 127.425883,19.6498129 C127.721699,19.5518364 128.056286,19.5603561 128.343486,19.4453401 C129.515262,18.9753366 130.684165,18.4925535 131.840144,17.9827913 C133.132544,17.4148112 134.424943,16.8468311 135.680007,16.2106934 C137.396026,15.3431037 139.076145,14.4158762 140.33408,12.8951095 C140.874016,12.2476121 141.027668,11.4836789 140.996076,10.6899267 Z M114.273565,26.3903169 C115.815828,26.4613144 117.33368,26.6885065 118.858711,26.8801998 C119.800726,26.9980556 120.73987,27.1428906 121.677578,27.2962452 C122.878073,27.4921983 124.092928,27.6370333 125.267576,27.9352228 C126.772503,28.3157695 128.245838,28.8269516 129.732098,29.2855956 C129.769433,29.2969552 129.792409,29.3551731 129.931701,29.5227273 C129.281194,29.7357198 128.719718,29.9600719 128.138138,30.1034869 C126.618851,30.4755139 125.07228,30.7467244 123.571661,31.1798092 C121.569878,31.756309 119.497731,31.9409026 117.465792,32.3413286 C115.742592,32.6806967 113.976313,32.7474343 112.228702,32.9391276 C111.089955,33.0640833 109.954079,33.2231177 108.81246,33.3196743 C107.576065,33.4219107 106.335361,33.4616693 105.096094,33.5440264 C104.708374,33.5695856 104.32209,33.6292235 103.937242,33.6860215 C103.529419,33.7442394 103.123031,33.8280165 102.775519,33.5710055 C102.775519,33.4673491 102.745363,33.3935117 102.775519,33.3764723 C103.364279,32.900789 103.460491,32.1837141 103.685942,31.5305369 C103.911394,30.8773598 103.482031,29.900434 102.865987,29.5426066 C102.324615,29.2316374 102.228403,28.9490673 102.568735,28.4279456 C103.044051,27.6995111 103.565319,27.0008955 104.054994,26.2809808 C104.268958,25.9643318 104.548978,25.8620954 104.928082,25.8720351 C106.491885,25.9160535 108.05856,25.8947543 109.619492,25.9813712 C111.180423,26.0679882 112.718378,26.3178995 114.273565,26.3903169 Z M125.303476,11.0548539 C125.46033,11.0050548 125.622055,10.9717387 125.785971,10.9554574 C126.216771,10.9256384 126.661931,10.9554574 127.078371,10.8858798 C128.612266,10.5994001 130.165447,10.42522 131.725265,10.364758 C133.017664,10.3207396 134.310063,10.3008603 135.602463,10.3292593 C136.128652,10.3171438 136.648758,10.4425335 137.110262,10.6927666 C136.722542,11.3161247 136.168246,11.7165507 135.612515,12.0843178 C133.703344,13.3503248 131.679482,14.4384119 129.566958,15.334584 C127.464655,16.2263128 125.310656,17.0044456 123.156657,17.7726387 C122.151457,18.1290462 121.10605,18.3406188 120.080746,18.6246088 C119.545119,18.7751236 119.020979,18.9753366 118.481043,19.1073919 C117.013452,19.4623795 115.54251,19.8036409 114.068217,20.1311761 C112.640834,20.4492449 111.209143,20.7403348 109.780323,21.047044 C109.470148,21.1123617 109.167152,21.2103383 108.85554,21.2657164 C108.506592,21.3281942 108.1519,21.3580131 107.70674,21.4077114 C107.801516,21.1464405 107.817312,20.991666 107.9006,20.8908495 C108.724864,19.875585 109.504612,18.8177221 110.406419,17.8734551 C111.649995,16.5713607 113.134818,15.5489965 114.714417,14.6842468 C115.439597,14.2895006 116.150416,13.8620956 116.877032,13.480129 C117.500256,13.1549604 118.130659,12.8283718 118.875943,12.8681304 C119.024261,12.8642439 119.17047,12.8324373 119.306743,12.7744137 C120.311942,12.4265259 121.317142,12.0346196 122.343881,11.7350101 L125.303476,11.0548539 Z" id="Shape"></path>
            </g>
        </g>
    </g>
</svg>