<?xml version="1.0" encoding="UTF-8"?>
<svg width="132px" height="78px" viewBox="0 0 132 78" version="1.1" xmlns="http://www.w3.org/2000/svg" xmlns:xlink="http://www.w3.org/1999/xlink">
    <!-- Generator: Sketch 49.3 (51167) - http://www.bohemiancoding.com/sketch -->
    <title>Shape</title>
    <desc>Created with Sketch.</desc>
    <defs></defs>
    <g id="Blog-Page" stroke="none" stroke-width="1" fill="none" fill-rule="evenodd">
        <g id="Welcome-Screen" transform="translate(-140.000000, -623.000000)" fill="#F9C659" fill-rule="nonzero">
            <g id="Sig1" transform="translate(140.000000, 623.000000)">
                <path d="M121.436552,46.2561094 C120.892018,47.3802993 120.325624,48.4945407 119.808913,49.6386278 C118.827163,51.7994601 117.907021,53.9921279 115.762672,55.3331969 C114.556351,56.0892893 113.286436,56.4454486 112.032419,55.6595105 C111.436214,55.2854437 111.038745,54.5512383 110.589604,53.9602924 C110.450617,53.7316585 110.334776,53.4897029 110.243805,53.2380253 C109.345524,53.9364158 108.564496,54.6845493 107.660253,55.2118242 C106.65068,55.7968009 105.559625,56.4255514 104.440748,56.5847287 C103.103263,56.7837004 101.779689,56.2643843 100.738318,55.2754952 C100.539583,55.0884618 100.340848,54.9133667 100.116278,54.7183745 C100.006974,54.8576546 99.9175431,54.9173461 99.9175431,54.9849965 C99.9334419,57.3308725 98.5263992,58.4829184 96.4853924,59.1156484 C94.412588,59.7623063 92.3775433,59.9572985 90.539246,58.4729699 C89.5455718,57.6770832 89.5097995,56.6623277 90.3067262,55.6873665 C91.4216287,54.3104826 93.0711279,53.8966215 94.5596518,53.1723646 C94.5854873,53.1604263 94.6133102,53.1544572 94.6411331,53.1445086 C97.0378753,52.2809715 96.6284815,52.4680049 95.7361621,50.3330389 C95.2254135,49.1133426 94.543753,47.9632863 93.8938901,46.8052712 C93.7607378,46.5684949 93.3612807,46.2362122 93.2281284,46.2919243 C92.8740449,46.4358239 92.5800766,46.6971283 92.3954294,47.0320989 C91.3699576,49.2327256 90.4279545,51.4751363 89.392546,53.6717835 C88.5538849,55.4466108 87.5780969,57.1040448 85.5410647,57.8243222 C83.8478439,58.4212372 82.3911175,58.1446666 81.053632,56.9926207 C79.4975382,55.6535413 78.4343068,53.970241 77.6035952,52.1198045 C77.4501935,51.815381 77.2810392,51.5191742 77.0968214,51.2323908 L76.8046811,51.2463189 C76.5602373,52.060113 76.3595151,52.8938043 76.0594255,53.6857115 C75.7354877,54.5452691 75.4314234,55.4486005 74.9107381,56.1867854 C74.1555457,57.257253 72.8756933,57.5795871 71.7409174,56.9607852 C70.5632876,56.3075338 69.4540919,55.5376372 68.429995,54.6626624 C67.6350556,53.998097 67.0150029,53.1325703 66.3472538,52.3287247 C65.8961257,51.7855321 65.532441,51.7676246 64.9342491,52.2053623 C63.139011,53.5199018 61.3086632,54.7846984 59.4432055,55.999752 C58.2150241,56.7956387 57.9765423,57.3806154 58.5747342,58.7157153 C59.8088776,61.4714729 60.9873752,64.2530968 62.287101,66.977019 C63.5868269,69.7009411 65.1369586,72.2875728 67.164054,74.5578396 C68.4180709,75.9506412 69.3859095,76.1894072 71.0115605,75.5745848 C72.2536533,75.1050117 73.2473275,73.6027756 73.2652136,72.1701795 C73.239533,72.0031315 73.2476429,71.83262 73.2890618,71.6687709 C73.4207461,71.442127 73.5723871,71.2277121 73.7421772,71.0280822 C73.9210386,71.1872595 74.1595204,71.3126116 74.2708119,71.5095936 C75.3042331,73.3640096 74.413901,76.2152736 72.5159833,77.188245 C69.4594414,78.7541521 66.1067847,78.0398438 64.2029049,75.172662 C62.6070641,72.7591357 61.2020088,70.2083189 59.8208016,67.6495432 C58.8450136,65.8408908 58.0321881,63.9387216 57.2094258,62.0524702 C56.8119562,61.1491388 56.5615503,60.1841262 56.2356251,59.2509491 C55.8659783,58.2003787 55.6215345,58.0571191 54.6159362,58.4431241 C52.093991,59.4280339 49.5919194,60.4626866 47.0640122,61.4456066 C46.2690729,61.752023 45.3946396,61.8435499 44.6593206,62.2414933 C44.0265769,62.5705862 43.493905,63.0640323 43.1171383,63.6701099 C42.5487566,64.6649682 42.2605911,65.8209936 41.7259944,66.8417183 C41.4478072,67.3426103 41.0157068,67.7403373 40.4938384,67.9758568 C39.7585195,68.2842629 38.9317825,67.5162322 39.1026945,66.7123867 C39.2736065,65.9085411 39.6054936,65.1683665 39.8539122,64.3943667 C39.9254567,64.1695287 40.052647,63.8392358 39.9592417,63.7198528 C39.8658363,63.6004698 39.4981768,63.5208811 39.2755938,63.556696 C38.027539,63.7695957 36.7874336,64.0382074 35.5393788,64.259066 C34.5675654,64.4301816 33.5858153,64.5515543 32.6120146,64.708742 C32.2504932,64.7565003 31.8944278,64.839126 31.5487832,64.9554668 C28.9652303,65.9284383 26.4373231,67.0645665 23.7981244,67.8684121 C19.0523364,69.3149361 14.4257893,68.72598 10.379548,65.8647674 C6.8500172,63.3676729 4.21876791,60.0209694 2.82762402,55.7968009 C1.77234202,52.6033056 0.736933498,49.4297075 0.369274043,46.0471892 C-0.0281956384,42.3244292 -0.334247293,38.6235562 0.719047363,34.9425803 C1.2993531,32.9110796 2.30892609,31.2138513 4.02400776,29.9682886 C4.20088177,29.838957 4.4771232,29.8449262 4.70765562,29.7872244 C4.73605945,30.0468458 4.74668346,30.3081091 4.73945319,30.569183 C4.70784369,30.7086315 4.628372,30.8325579 4.51488282,30.9193732 C2.20359662,32.7877172 1.94524133,35.4559272 1.8001649,38.1161784 C1.52193612,43.1402131 2.70440842,47.951348 4.05779269,52.7266681 C4.70964296,55.016832 5.86230504,57.0861373 7.17991704,59.0798335 C8.75190963,61.4674935 10.7034858,63.409457 13.2274182,64.7326186 C16.7470123,66.5750962 20.3699484,66.5571888 24.0346189,65.1763254 C24.1895538,65.1143506 24.3385532,65.0384302 24.4797849,64.9494977 C24.5195319,64.9256211 24.5294686,64.8520016 24.6328107,64.6371122 C23.9751919,64.4376518 23.3079148,64.2716299 22.6335383,64.139683 C19.101698,63.6223176 15.7452809,62.2645045 12.8458473,60.1801468 C10.5246244,58.5187334 8.47368085,56.5747801 7.94107148,53.6339789 C7.59924755,51.7616555 7.35480369,49.805764 7.51180422,47.923492 C7.74233663,45.1836521 9.13348052,44.7678013 11.6216407,44.4733233 C11.9555153,44.4315392 12.3013139,44.5051587 12.6371758,44.4733233 C13.63085,44.3817963 13.8395215,45.1438578 13.9786359,45.8064334 C14.1177503,46.4690091 13.676559,46.982356 13.0167593,47.1992351 C12.6451252,47.3225976 12.2496428,47.4797852 11.8720466,47.4638674 C10.7988785,47.4141245 10.0834331,47.8419136 10.0516355,49.4058309 C10.0218253,50.655373 10.2642818,51.9327711 10.5405232,53.162416 C10.9379929,54.8994387 12.0131484,56.2206106 13.3009501,57.4263789 C15.5110687,59.5180365 18.2515324,60.9631912 21.2245082,61.6047839 C24.516176,62.3269802 27.9000765,62.5317195 31.2546556,62.2116475 C32.3158997,62.1121617 33.361245,61.3341825 34.3171595,60.7153806 C35.7083034,59.8120492 37.0616877,58.7933143 37.8566271,57.2632221 C39.168277,54.7362819 38.8642127,52.2670435 37.6062212,49.7898462 C36.093849,46.8052712 33.8779555,44.3519505 31.8945818,41.7115965 C28.9652303,37.8037929 26.1431955,33.8243595 23.3609078,29.8210496 C21.1777216,26.7121552 19.5838858,23.2279763 18.6588414,19.5421732 C17.7844081,15.9606831 17.3034698,12.2876661 18.9569437,8.72607326 C19.5737334,7.35157454 20.5165692,6.14874359 21.7034592,5.22218217 C26.3419304,1.65462015 31.564682,-0.199795801 37.4452459,0.0170833182 C38.8960103,0.0747851022 40.3348505,0.397119205 41.7796528,0.596090874 C41.9783876,0.623946908 42.2089201,0.695576709 42.3639332,0.619967474 C43.3456834,0.150394336 44.1068378,0.709504725 44.5997002,1.33626548 C45.6549822,2.67534481 46.7996949,4.04426989 47.4356464,5.59624891 C48.8267903,8.96682898 49.9059204,12.456792 50.4484666,16.0860353 C50.9612024,19.5202863 51.5335588,22.9465784 51.950902,26.3927677 C52.3145867,29.3932605 52.4219035,32.4216093 52.7816136,35.422102 C53.0717665,37.8575153 53.4692361,40.2909388 53.9978708,42.6865577 C54.643759,45.6273589 55.4645339,48.548263 56.2336378,51.4552391 C56.4323726,52.1615885 56.7324622,52.8341128 56.9828681,53.5245445 C57.2153879,54.1552847 57.5890094,54.3403283 58.2329103,54.0279428 C60.3673225,52.9893107 62.1539487,51.4890643 63.867043,49.8813732 C64.345994,49.4316972 64.2963103,48.9183503 64.0280182,48.4069931 C62.503722,45.5119554 61.7445549,42.3642236 61.2457305,39.1806769 C60.438867,33.947722 60.6217031,28.7247157 62.3228733,23.6608867 C63.0005591,21.6472934 64.1253983,19.8406307 66.0471642,18.6647081 C69.8588985,16.3307704 74.0064946,18.4657364 74.0740644,22.9684653 C74.1541759,26.079675 73.984707,29.1923031 73.5672906,32.27636 C73.1698209,35.022169 72.1363997,37.6684922 71.5262838,40.3924143 C71.0354087,42.5811027 69.8827466,44.4593952 69.0937693,46.5028343 C68.8254773,47.1952557 68.29883,47.7881913 67.865588,48.4129623 C67.2912443,49.2486433 67.5813972,50.0425403 68.1318927,50.6653216 C69.139221,51.8048318 70.2115296,52.8850618 71.3434477,53.9006009 C72.1960202,54.6666418 72.702794,54.4975159 73.2830998,53.4867398 C74.4238377,51.5109512 74.7815605,49.3083348 75.2148024,47.1196465 C75.5109173,45.6233795 75.8110069,44.1350714 76.1071218,42.6308456 C76.2184134,42.0657661 76.5324144,41.6996582 77.1007961,41.6359873 C77.3570261,41.5880964 77.6217249,41.6454859 77.8352105,41.7952162 C78.048696,41.9449465 78.192995,42.1744117 78.235572,42.4318739 C78.458175,43.3006896 78.5972603,44.1888318 78.6509278,45.0841663 C78.720485,48.4666846 79.5750448,51.5606941 81.7213811,54.2249247 C83.0529045,55.8763896 84.4539852,55.9659268 85.8371797,54.3502769 C86.592372,53.4668427 87.1388929,52.3824471 87.6774643,51.3358561 C88.5061886,49.7301547 89.2196466,48.0667516 90.0384342,46.4570708 C90.4072282,45.7899395 90.8264569,45.1520322 91.292451,44.5489325 C92.7293039,42.5592158 94.8696782,43.3730099 95.724238,44.9110609 C96.6503423,46.5943612 97.5366997,48.2935793 98.4429306,49.9908076 C98.5721082,50.2315633 98.7231467,50.4623705 98.9477171,50.8344475 C99.0958257,50.5841067 99.2285615,50.3249634 99.3451868,50.058458 C100.982762,45.205539 104.540116,42.6248765 109.391233,41.665833 C111.114264,41.3255915 112.475598,42.5333495 112.640548,44.2683824 C112.670747,44.5663472 112.805198,44.8440267 113.020131,45.0523308 C113.815071,45.7288345 113.872704,46.5764538 113.751475,47.5215692 C113.552741,49.0019184 113.391765,50.4882368 113.266562,51.9745552 C113.240727,52.2769921 113.361955,52.7405961 113.572614,52.8659482 C113.783273,52.9913004 114.260237,52.8221745 114.458971,52.6212131 C115.0545,52.0635218 115.578534,51.4339311 116.01904,50.7469 C117.09817,48.8944737 118.073958,46.982356 119.113341,45.1060532 C119.550558,44.3101665 119.955977,43.4844341 120.532308,42.8099201 C121.641249,41.5126248 123.060215,41.5942032 123.847205,43.098429 C124.544765,44.4295495 125.003842,45.9059193 125.415223,47.3623919 C125.951807,49.2625713 126.806367,50.9180156 128.322714,52.2192903 C128.862661,52.7237298 129.571591,53.0076395 130.310062,53.015177 C130.924153,53.0251256 131.762814,52.8162053 131.98341,53.7473927 C132.122524,54.3303797 131.365344,55.1939168 130.514759,55.3670221 C129.964516,55.4793535 129.397907,55.4854315 128.845387,55.3849296 C126.814316,54.9869862 125.381438,53.7633105 124.228776,52.0780204 C123.203304,50.5817535 122.589214,48.9342681 122.076478,47.2251014 C121.983072,46.9147056 121.832034,46.6281864 121.706831,46.3197803 L121.436552,46.2561094 Z M45.0389042,17.9324924 L44.7765742,17.8449448 C44.393016,18.3443637 43.9975336,18.8398032 43.6298742,19.3491706 C42.3857941,21.074255 40.5395474,22.3337457 39.7744183,24.4348865 C39.5756834,24.9979763 39.0073018,25.1074107 38.4826418,24.9104288 C37.9579818,24.7134468 37.7731584,24.2578017 37.9540071,23.7305268 C38.076465,23.4159782 38.2430916,23.1205168 38.4488569,22.8530617 C40.1818247,20.4176485 41.9128052,17.9822353 43.6696211,15.5647295 C44.3659183,14.6162605 44.6254226,13.4156181 44.3830792,12.2637895 C43.9120776,9.6254252 43.389405,6.99501974 42.944239,4.3546657 C42.7892258,3.45929319 42.2745026,3.01160693 41.4457783,2.86635761 C40.4183191,2.68728311 39.3928474,2.47836286 38.3574389,2.39678448 C35.5652143,2.18786422 32.8703699,2.74299518 30.1993736,3.5567893 C27.959632,4.24125184 25.85503,5.14856265 24.0385936,6.61299414 C22.335436,7.98788837 20.7813295,9.48813475 20.3361635,11.7862575 C19.7876553,14.6315524 20.1155678,17.4211352 20.8707602,20.1709236 C21.672118,22.9980682 22.838607,25.7084038 24.3406705,28.2332557 C27.0335276,32.8633264 30.2331586,37.1193304 33.6136382,41.2499822 C35.7261896,43.8366139 37.8148927,46.4232456 39.3431637,49.4078206 C41.3821831,53.4091409 40.7343075,57.6372889 37.5247399,60.7372675 C37.2763213,60.9760335 37.063675,61.2506144 36.83513,61.5072878 L36.9563582,61.7321258 C37.5525627,61.6346297 38.1308811,61.4953495 38.723111,61.4475963 C40.7104594,61.288419 42.1691731,60.4865632 42.6481241,58.3933812 C42.7293835,58.1226898 42.826264,57.8569475 42.9382769,57.5974945 C44.2856991,53.8826935 44.9991572,50.0166739 45.4721461,46.1168292 C46.0007808,41.7692983 46.418124,37.4058496 46.1398952,33.0105654 C45.9014134,29.2599495 45.6987039,25.5093335 45.4502853,21.7607073 C45.3568799,20.4932577 45.1760312,19.2138699 45.0389042,17.9324924 Z M72.4086665,25.2685778 L72.6372115,25.2327629 C72.3728942,23.9454162 72.2099316,22.626234 71.818424,21.3786817 C71.4110176,20.0734275 70.1291778,19.6018647 68.8572749,20.1271499 C67.1461679,20.835489 66.0272907,22.1367637 65.2919718,23.7941977 C64.4143851,25.8458642 63.8593046,28.0211778 63.6464473,30.2428695 C63.0629067,35.4874254 63.7233703,40.7958369 65.5741753,45.7367934 C65.6795048,46.0233126 65.971645,46.2441711 66.1703798,46.4968651 C66.4406592,46.2760066 66.8083187,46.1108601 66.9653192,45.8283203 C67.6707764,44.6367018 68.3103406,43.4071954 68.881123,42.1453547 C71.1546496,36.7572019 72.5497682,31.1680878 72.4086665,25.2685778 Z M47.3680765,13.7958714 C46.5075547,14.2674342 46.4439595,14.8782773 46.5194788,15.5607501 C46.7341124,17.5246004 46.9566954,19.4884508 47.1435062,21.4542909 C47.2488356,22.5784808 47.2627471,23.7126193 47.3601271,24.8368093 C47.5429632,26.9697856 47.8351034,29.0967927 47.9384455,31.2317587 C48.0398003,33.3169818 48.0258889,35.4101637 47.9384455,37.4993663 C47.8231793,40.3168051 47.6363686,43.1302645 47.3978868,45.9397445 C47.2130634,48.1284328 47.0123412,50.3171212 46.6168588,52.4759638 C46.2352879,54.5472588 45.5893997,56.5708007 45.0846132,58.6202089 C45.0170434,58.8947898 44.9832584,59.3265583 45.1342969,59.4618591 C45.2853354,59.5971598 45.7305014,59.5792523 45.9888567,59.4877254 C46.9719317,59.1428412 47.9437451,58.7661215 48.9042968,58.3575663 C50.6670749,57.6074431 52.4159415,56.8274742 54.1687828,56.0574538 C54.7331897,55.8087392 54.9637221,55.4505902 54.7769114,54.7800557 C54.0376178,52.1755166 53.2665266,49.5749568 52.6623727,46.9385822 C51.9369905,43.7809018 51.2414186,40.6092935 50.7724044,37.4078393 C50.1761998,33.3886116 49.8701482,29.3315793 49.3653617,25.2984235 C48.9837908,22.2461981 48.5068272,19.205911 48.0278762,16.165624 C47.9026733,15.3896344 47.6085457,14.6514496 47.3601271,13.7859228 L47.3680765,13.7958714 Z M110.269641,46.8649627 C109.673436,47.129595 109.285904,47.354433 108.878497,47.4618777 C108.598281,47.5354972 108.282293,47.4479497 107.968292,47.4340217 C108.102338,47.1848459 108.255841,46.946665 108.427369,46.7217031 C108.86856,46.2183048 109.405144,45.7865363 109.778766,45.2393642 C110.074881,44.8095854 109.866209,44.4136318 109.291866,44.5747988 C108.59261,44.781151 107.912409,45.0474311 107.258808,45.3706855 C105.658993,46.1526441 104.47652,47.4399908 103.363605,48.7790702 C102.485619,49.7686386 102.161717,51.1330387 102.501096,52.4122928 C102.699831,53.240015 103.772999,53.9224878 104.464596,53.5484211 C105.587448,52.9415575 106.783832,52.312807 107.644354,51.4015168 C108.608218,50.374823 109.234232,49.0297745 109.9934,47.8080884 C110.110653,47.5912093 110.136489,47.312649 110.269641,46.8649627 Z M97.093521,54.7661277 C97.0557614,54.6746007 97.0219765,54.3681843 96.8808748,54.3025237 C96.6494555,54.2321542 96.3994889,54.2579694 96.1872902,54.3741535 C95.5452045,54.7109544 94.9275996,55.092597 94.3390561,55.5162509 C93.9415865,55.8087392 93.6534209,56.2305592 93.3155717,56.596667 C93.8382443,56.674266 94.3748284,56.8692582 94.8796149,56.807577 C96.0362517,56.6663071 97.0040904,55.7589963 97.093521,54.7661277 Z" id="Shape"></path>
            </g>
        </g>
    </g>
</svg>