<?xml version="1.0" encoding="UTF-8"?>
<svg width="330px" height="18px" viewBox="0 0 330 18" version="1.1" xmlns="http://www.w3.org/2000/svg" xmlns:xlink="http://www.w3.org/1999/xlink">
    <!-- Generator: Sketch 49.3 (51167) - http://www.bohemiancoding.com/sketch -->
    <title>Group 7</title>
    <desc>Created with Sketch.</desc>
    <defs>
        <linearGradient x1="5.91848906%" y1="50%" x2="97.9402528%" y2="50%" id="linearGradient-1">
            <stop stop-color="#F89D46" offset="0%"></stop>
            <stop stop-color="#F16447" offset="100%"></stop>
        </linearGradient>
    </defs>
    <g id="Blog-Page" stroke="none" stroke-width="1" fill="none" fill-rule="evenodd">
        <g id="Questionnaire-mobile-(1)" transform="translate(-22.000000, -799.000000)">
            <g id="Group-5" transform="translate(22.000000, 760.000000)">
                <g id="Group-7" transform="translate(0.000000, 39.000000)">
                    <rect id="Rectangle-19" fill="#D8D8D8" x="0" y="5" width="330" height="7" rx="3.5"></rect>
                    <path d="M9,18 C4.02943725,18 0,13.9705627 0,9 C0,4.02943725 4.02943725,0 9,0 C13.9705627,0 18,4.02943725 18,9 C18,13.9705627 13.9705627,18 9,18 Z M321,18 C316.029437,18 312,13.9705627 312,9 C312,4.02943725 316.029437,0 321,0 C325.970563,0 330,4.02943725 330,9 C330,13.9705627 325.970563,18 321,18 Z M258.6,18 C253.629437,18 249.6,13.9705627 249.6,9 C249.6,4.02943725 253.629437,0 258.6,0 C263.570563,0 267.6,4.02943725 267.6,9 C267.6,13.9705627 263.570563,18 258.6,18 Z M196.2,18 C191.229437,18 187.2,13.9705627 187.2,9 C187.2,4.02943725 191.229437,0 196.2,0 C201.170563,0 205.2,4.02943725 205.2,9 C205.2,13.9705627 201.170563,18 196.2,18 Z M133.8,18 C128.829437,18 124.8,13.9705627 124.8,9 C124.8,4.02943725 128.829437,0 133.8,0 C138.770563,0 142.8,4.02943725 142.8,9 C142.8,13.9705627 138.770563,18 133.8,18 Z M71.4,18 C66.4294373,18 62.4,13.9705627 62.4,9 C62.4,4.02943725 66.4294373,0 71.4,0 C76.3705627,0 80.4,4.02943725 80.4,9 C80.4,13.9705627 76.3705627,18 71.4,18 Z" id="Combined-Shape" fill="#D8D8D8"></path>
                    <path d="M62.93552,4.99999927 C64.4082227,2.0365627 67.466279,0 71,0 C75.9705627,0 80,4.02943725 80,9 C80,13.9705627 75.9705627,18 71,18 C67.0813435,18 63.7476263,15.4955771 62.5121171,12 L17.4878829,12 C16.2523737,15.4955771 12.9186565,18 9,18 C4.02943725,18 0,13.9705627 0,9 C0,4.02943725 4.02943725,0 9,0 C12.533721,0 15.5917773,2.0365627 17.06448,4.99999927 L62.9355166,5 Z" id="Combined-Shape" fill="url(#linearGradient-1)"></path>
                </g>
            </g>
        </g>
    </g>
</svg>