<?xml version="1.0" encoding="UTF-8"?>
<svg width="985px" height="18px" viewBox="0 0 985 18" version="1.1" xmlns="http://www.w3.org/2000/svg" xmlns:xlink="http://www.w3.org/1999/xlink">
    <!-- Generator: Sketch 49.3 (51167) - http://www.bohemiancoding.com/sketch -->
    <title>Group 23</title>
    <desc>Created with Sketch.</desc>
    <defs>
        <linearGradient x1="5.91848906%" y1="50%" x2="97.9402528%" y2="50%" id="linearGradient-1">
            <stop stop-color="#F89D46" offset="0%"></stop>
            <stop stop-color="#F16447" offset="100%"></stop>
        </linearGradient>
    </defs>
    <g id="Blog-Page" stroke="none" stroke-width="1" fill="none" fill-rule="evenodd">
        <g id="Profile-page-Copy-4" transform="translate(-307.000000, -763.000000)">
            <g id="Group-21" transform="translate(307.000000, 721.000000)">
                <g id="Group-23" transform="translate(0.000000, 42.000000)">
                    <path d="M967.512117,6 C968.747626,2.50442288 972.081344,0 976,0 C980.970563,0 985,4.02943725 985,9 C985,9.10310222 984.998266,9.20579951 984.994827,9.30806432 C984.998261,9.37160704 985,9.4356004 985,9.5 C985,9.78056837 984.966987,10.0534261 984.904634,10.3149007 C984.268244,14.6621837 980.523916,18 976,18 C972.466279,18 969.408223,15.9634373 967.93552,13.0000007 L790.664483,13 C789.191777,15.9634373 786.133721,18 782.6,18 C779.066279,18 776.008223,15.9634373 774.53552,13.0000007 L597.264483,13 C595.791777,15.9634373 592.733721,18 589.2,18 C585.666279,18 582.608223,15.9634373 581.13552,13.0000007 L403.864483,13 C402.391777,15.9634373 399.333721,18 395.8,18 C392.266279,18 389.208223,15.9634373 387.73552,13.0000007 L210.464483,13 C208.991777,15.9634373 205.933721,18 202.4,18 C198.866279,18 195.808223,15.9634373 194.33552,13.0000007 L17.0644834,13 C15.5917773,15.9634373 12.533721,18 9,18 C4.02943725,18 0,13.9705627 0,9 C0,4.02943725 4.02943725,0 9,0 C12.9186565,0 16.2523737,2.50442288 17.4878829,6 L193.912117,6 C195.147626,2.50442288 198.481344,0 202.4,0 C206.318656,0 209.652374,2.50442288 210.887883,6 L387.312117,6 C388.547626,2.50442288 391.881344,0 395.8,0 C399.718656,0 403.052374,2.50442288 404.287883,6 L580.712117,6 C581.947626,2.50442288 585.281344,0 589.2,0 C593.118656,0 596.452374,2.50442288 597.687883,6 L774.112117,6 C775.347626,2.50442288 778.681344,0 782.6,0 C786.518656,0 789.852374,2.50442288 791.087883,6 L967.512117,6 Z" id="Combined-Shape-Copy-17" fill="#BAB6BD"></path>
                    <path d="M774.512117,6 C775.747626,2.50442288 779.081344,0 783,0 C787.970563,0 792,4.02943725 792,9 C792,13.9705627 787.970563,18 783,18 C779.466279,18 776.408223,15.9634373 774.93552,13.0000007 L597.064483,13 C595.591777,15.9634373 592.533721,18 589,18 C584.029437,18 580,13.9705627 580,9 C580,4.02943725 584.029437,0 589,0 C592.918656,0 596.252374,2.50442288 597.487883,6 L774.512117,6 Z" id="Combined-Shape-Copy-18" fill="url(#linearGradient-1)"></path>
                </g>
            </g>
        </g>
    </g>
</svg>